<svg xmlns="http://www.w3.org/2000/svg" xmlns:xlink="http://www.w3.org/1999/xlink" width="500" zoomAndPan="magnify" viewBox="0 0 375 374.999991" height="500" preserveAspectRatio="xMidYMid meet" version="1.0"><defs><clipPath id="64a1b5d953"><path d="M 88 128 L 164 128 L 164 247 L 88 247 Z M 88 128 " clip-rule="nonzero"/></clipPath><clipPath id="8c758df850"><path d="M 135.582031 258.570312 L 64.515625 187.507812 L 143.003906 109.019531 L 214.070312 180.082031 Z M 135.582031 258.570312 " clip-rule="nonzero"/></clipPath><clipPath id="fc82de8156"><path d="M 135.582031 258.570312 L 64.515625 187.507812 L 143.003906 109.019531 L 214.070312 180.082031 Z M 135.582031 258.570312 " clip-rule="nonzero"/></clipPath><clipPath id="71c56cd067"><path d="M 120.820312 160.738281 C 119.5 162.058594 118.28125 163.472656 117.164062 164.976562 C 116.050781 166.476562 115.054688 168.054688 114.171875 169.703125 C 113.289062 171.351562 112.53125 173.058594 111.902344 174.820312 C 111.273438 176.582031 110.773438 178.378906 110.410156 180.214844 C 110.042969 182.046875 109.816406 183.898438 109.722656 185.769531 C 109.632812 187.636719 109.679688 189.5 109.863281 191.363281 C 110.046875 193.222656 110.363281 195.0625 110.820312 196.875 C 111.273438 198.691406 111.859375 200.460938 112.574219 202.191406 C 113.289062 203.917969 114.128906 205.585938 115.089844 207.191406 C 116.050781 208.792969 117.125 210.320312 118.3125 211.765625 C 119.5 213.210938 120.785156 214.5625 122.171875 215.820312 C 123.558594 217.074219 125.03125 218.222656 126.585938 219.261719 C 128.140625 220.300781 129.761719 221.21875 131.453125 222.019531 C 133.144531 222.820312 134.886719 223.492188 136.675781 224.035156 C 138.464844 224.574219 140.285156 224.984375 142.136719 225.257812 C 143.988281 225.53125 145.847656 225.671875 147.71875 225.667969 L 147.714844 222.914062 C 146.558594 222.914062 145.40625 222.855469 144.257812 222.742188 C 143.109375 222.628906 141.964844 222.460938 140.832031 222.234375 C 139.699219 222.007812 138.578125 221.726562 137.472656 221.390625 C 136.367188 221.058594 135.28125 220.667969 134.214844 220.226562 C 133.144531 219.78125 132.101562 219.289062 131.082031 218.746094 C 130.066406 218.199219 129.074219 217.605469 128.113281 216.964844 C 127.152344 216.320312 126.226562 215.632812 125.332031 214.898438 C 124.441406 214.167969 123.585938 213.390625 122.769531 212.574219 C 121.949219 211.757812 121.175781 210.902344 120.441406 210.007812 C 119.710938 209.113281 119.023438 208.1875 118.378906 207.226562 C 117.738281 206.265625 117.144531 205.277344 116.601562 204.257812 C 116.054688 203.238281 115.5625 202.195312 115.121094 201.125 C 114.679688 200.058594 114.289062 198.972656 113.953125 197.863281 C 113.621094 196.757812 113.339844 195.640625 113.113281 194.507812 C 112.890625 193.371094 112.71875 192.230469 112.605469 191.082031 C 112.492188 189.929688 112.4375 188.777344 112.4375 187.621094 C 112.4375 186.464844 112.496094 185.3125 112.609375 184.164062 C 112.722656 183.011719 112.890625 181.871094 113.117188 180.738281 C 113.34375 179.605469 113.621094 178.484375 113.957031 177.378906 C 114.292969 176.273438 114.683594 175.1875 115.125 174.121094 C 115.566406 173.050781 116.0625 172.007812 116.605469 170.988281 C 117.152344 169.96875 117.746094 168.980469 118.386719 168.019531 C 119.03125 167.058594 119.71875 166.132812 120.449219 165.238281 C 121.183594 164.34375 121.960938 163.492188 122.777344 162.671875 C 123.59375 161.855469 124.449219 161.082031 125.34375 160.347656 C 126.234375 159.617188 127.164062 158.929688 128.125 158.285156 C 129.085938 157.644531 130.074219 157.050781 131.09375 156.507812 C 132.113281 155.960938 133.15625 155.46875 134.226562 155.027344 C 135.292969 154.585938 136.378906 154.195312 137.484375 153.859375 C 138.59375 153.523438 139.710938 153.246094 140.84375 153.019531 C 141.980469 152.792969 143.121094 152.625 144.269531 152.511719 C 145.421875 152.398438 146.574219 152.34375 147.730469 152.34375 L 163.296875 152.34375 L 163.296875 149.585938 L 147.726562 149.609375 C 145.226562 149.597656 142.753906 149.835938 140.300781 150.320312 C 137.847656 150.800781 135.46875 151.523438 133.160156 152.476562 C 130.851562 153.433594 128.65625 154.605469 126.582031 155.996094 C 124.503906 157.386719 122.585938 158.964844 120.820312 160.738281 Z M 130.582031 170.5 C 129.738281 171.339844 128.964844 172.242188 128.253906 173.199219 C 127.542969 174.15625 126.90625 175.160156 126.347656 176.210938 C 125.785156 177.261719 125.304688 178.347656 124.902344 179.46875 C 124.5 180.59375 124.183594 181.738281 123.949219 182.90625 C 123.71875 184.074219 123.574219 185.253906 123.515625 186.445312 C 123.457031 187.636719 123.484375 188.824219 123.601562 190.007812 C 123.71875 191.195312 123.921875 192.367188 124.210938 193.523438 C 124.5 194.679688 124.875 195.804688 125.328125 196.90625 C 125.785156 198.007812 126.320312 199.070312 126.933594 200.09375 C 127.542969 201.113281 128.230469 202.085938 128.984375 203.007812 C 129.742188 203.929688 130.558594 204.789062 131.441406 205.589844 C 132.324219 206.390625 133.261719 207.121094 134.253906 207.785156 C 135.246094 208.445312 136.277344 209.03125 137.355469 209.539062 C 138.433594 210.050781 139.542969 210.476562 140.683594 210.824219 C 141.820312 211.171875 142.980469 211.429688 144.160156 211.605469 C 145.339844 211.78125 146.523438 211.867188 147.714844 211.867188 L 147.714844 209.109375 C 147.011719 209.109375 146.3125 209.074219 145.609375 209.007812 C 144.910156 208.9375 144.214844 208.835938 143.523438 208.699219 C 142.835938 208.5625 142.152344 208.390625 141.480469 208.1875 C 140.808594 207.984375 140.144531 207.746094 139.496094 207.476562 C 138.84375 207.207031 138.210938 206.90625 137.589844 206.574219 C 136.96875 206.246094 136.367188 205.882812 135.78125 205.492188 C 135.195312 205.101562 134.632812 204.683594 134.085938 204.238281 C 133.542969 203.789062 133.023438 203.320312 132.527344 202.820312 C 132.027344 202.324219 131.554688 201.804688 131.109375 201.257812 C 130.664062 200.714844 130.246094 200.152344 129.855469 199.566406 C 129.464844 198.980469 129.101562 198.378906 128.769531 197.757812 C 128.4375 197.136719 128.136719 196.503906 127.867188 195.851562 C 127.597656 195.203125 127.363281 194.542969 127.160156 193.867188 C 126.953125 193.195312 126.785156 192.511719 126.644531 191.824219 C 126.507812 191.132812 126.40625 190.4375 126.335938 189.738281 C 126.269531 189.039062 126.234375 188.335938 126.234375 187.632812 C 126.234375 186.929688 126.269531 186.226562 126.335938 185.527344 C 126.40625 184.828125 126.507812 184.132812 126.648438 183.441406 C 126.785156 182.75 126.953125 182.070312 127.160156 181.398438 C 127.363281 180.722656 127.601562 180.0625 127.871094 179.410156 C 128.140625 178.761719 128.441406 178.125 128.769531 177.507812 C 129.101562 176.886719 129.464844 176.285156 129.855469 175.699219 C 130.246094 175.113281 130.664062 174.550781 131.113281 174.003906 C 131.558594 173.460938 132.03125 172.941406 132.527344 172.445312 C 133.023438 171.945312 133.546875 171.476562 134.089844 171.027344 C 134.632812 170.582031 135.199219 170.164062 135.785156 169.773438 C 136.367188 169.382812 136.972656 169.023438 137.589844 168.691406 C 138.210938 168.359375 138.847656 168.058594 139.496094 167.789062 C 140.148438 167.519531 140.808594 167.285156 141.484375 167.078125 C 142.15625 166.875 142.835938 166.707031 143.527344 166.566406 C 144.21875 166.429688 144.914062 166.328125 145.613281 166.261719 C 146.3125 166.191406 147.015625 166.15625 147.71875 166.15625 L 163.308594 166.15625 L 163.304688 163.402344 L 147.714844 163.402344 C 146.125 163.398438 144.546875 163.550781 142.988281 163.855469 C 141.425781 164.164062 139.910156 164.625 138.4375 165.234375 C 136.96875 165.84375 135.570312 166.589844 134.25 167.476562 C 132.925781 168.363281 131.703125 169.371094 130.582031 170.5 Z M 125.691406 165.609375 C 124.609375 166.691406 123.613281 167.847656 122.703125 169.078125 C 121.792969 170.308594 120.976562 171.597656 120.253906 172.945312 C 119.535156 174.296875 118.917969 175.691406 118.402344 177.132812 C 117.886719 178.574219 117.480469 180.042969 117.179688 181.546875 C 116.882812 183.046875 116.695312 184.5625 116.621094 186.089844 C 116.546875 187.617188 116.582031 189.144531 116.734375 190.667969 C 116.882812 192.191406 117.144531 193.695312 117.515625 195.179688 C 117.886719 196.664062 118.367188 198.113281 118.953125 199.527344 C 119.535156 200.941406 120.222656 202.304688 121.007812 203.617188 C 121.796875 204.929688 122.675781 206.175781 123.644531 207.359375 C 124.613281 208.542969 125.667969 209.648438 126.800781 210.675781 C 127.933594 211.707031 129.136719 212.644531 130.410156 213.496094 C 131.679688 214.347656 133.007812 215.097656 134.390625 215.753906 C 135.773438 216.410156 137.199219 216.960938 138.664062 217.402344 C 140.128906 217.847656 141.617188 218.183594 143.128906 218.410156 C 144.644531 218.636719 146.164062 218.75 147.695312 218.75 L 147.714844 216.011719 C 146.800781 215.988281 145.890625 215.921875 144.980469 215.8125 C 144.074219 215.699219 143.171875 215.546875 142.277344 215.347656 C 141.386719 215.152344 140.503906 214.910156 139.632812 214.628906 C 138.761719 214.34375 137.910156 214.019531 137.070312 213.652344 C 136.230469 213.289062 135.414062 212.882812 134.613281 212.4375 C 133.8125 211.992188 133.035156 211.507812 132.285156 210.988281 C 131.53125 210.46875 130.804688 209.914062 130.105469 209.324219 C 129.40625 208.734375 128.738281 208.109375 128.097656 207.457031 C 127.460938 206.800781 126.855469 206.117188 126.28125 205.402344 C 125.707031 204.6875 125.171875 203.949219 124.667969 203.183594 C 124.167969 202.417969 123.707031 201.628906 123.28125 200.820312 C 122.855469 200.011719 122.46875 199.179688 122.125 198.332031 C 121.78125 197.484375 121.476562 196.625 121.214844 195.746094 C 120.953125 194.871094 120.734375 193.984375 120.558594 193.085938 C 120.382812 192.1875 120.253906 191.28125 120.164062 190.371094 C 120.074219 189.460938 120.03125 188.546875 120.03125 187.632812 C 120.03125 186.71875 120.074219 185.804688 120.164062 184.894531 C 120.253906 183.984375 120.382812 183.078125 120.558594 182.179688 C 120.734375 181.28125 120.953125 180.394531 121.214844 179.519531 C 121.476562 178.640625 121.78125 177.777344 122.125 176.929688 C 122.472656 176.082031 122.855469 175.253906 123.28125 174.445312 C 123.707031 173.632812 124.171875 172.847656 124.671875 172.082031 C 125.171875 171.316406 125.710938 170.574219 126.28125 169.863281 C 126.855469 169.148438 127.460938 168.464844 128.101562 167.808594 C 128.738281 167.15625 129.410156 166.53125 130.109375 165.941406 C 130.808594 165.351562 131.535156 164.796875 132.285156 164.277344 C 133.039062 163.757812 133.816406 163.273438 134.613281 162.828125 C 135.414062 162.382812 136.234375 161.976562 137.074219 161.613281 C 137.910156 161.246094 138.765625 160.921875 139.636719 160.640625 C 140.507812 160.355469 141.386719 160.117188 142.28125 159.917969 C 143.175781 159.71875 144.074219 159.566406 144.984375 159.457031 C 145.890625 159.34375 146.804688 159.277344 147.71875 159.253906 L 163.296875 159.253906 L 163.296875 156.5 L 147.714844 156.5 C 145.671875 156.492188 143.644531 156.691406 141.640625 157.085938 C 139.632812 157.484375 137.6875 158.070312 135.796875 158.855469 C 133.90625 159.636719 132.113281 160.597656 130.414062 161.738281 C 128.714844 162.875 127.144531 164.167969 125.703125 165.621094 Z M 111.050781 150.964844 C 109.851562 152.167969 108.710938 153.425781 107.636719 154.738281 C 106.558594 156.050781 105.546875 157.414062 104.605469 158.824219 C 103.664062 160.238281 102.792969 161.691406 101.992188 163.1875 C 101.191406 164.6875 100.46875 166.21875 99.816406 167.789062 C 99.167969 169.359375 98.597656 170.953125 98.105469 172.578125 C 97.613281 174.203125 97.203125 175.847656 96.871094 177.515625 C 96.539062 179.179688 96.292969 180.859375 96.125 182.546875 C 95.960938 184.238281 95.878906 185.929688 95.878906 187.628906 C 95.878906 189.328125 95.960938 191.019531 96.128906 192.710938 C 96.296875 194.398438 96.542969 196.078125 96.875 197.742188 C 97.207031 199.40625 97.621094 201.050781 98.113281 202.675781 C 98.605469 204.300781 99.179688 205.898438 99.828125 207.464844 C 100.480469 209.035156 101.203125 210.566406 102.003906 212.066406 C 102.804688 213.5625 103.679688 215.015625 104.621094 216.429688 C 105.566406 217.839844 106.574219 219.203125 107.652344 220.515625 C 108.730469 221.828125 109.871094 223.082031 111.070312 224.28125 C 113.472656 226.699219 116.085938 228.851562 118.914062 230.75 C 121.742188 232.644531 124.726562 234.246094 127.871094 235.550781 C 131.019531 236.851562 134.261719 237.835938 137.601562 238.496094 C 140.941406 239.15625 144.3125 239.480469 147.71875 239.472656 L 147.707031 236.726562 C 146.097656 236.726562 144.496094 236.648438 142.894531 236.492188 C 141.296875 236.332031 139.707031 236.097656 138.128906 235.785156 C 136.554688 235.472656 134.996094 235.082031 133.457031 234.613281 C 131.917969 234.148438 130.40625 233.605469 128.921875 232.992188 C 127.4375 232.375 125.988281 231.691406 124.570312 230.933594 C 123.152344 230.175781 121.773438 229.347656 120.4375 228.457031 C 119.101562 227.5625 117.8125 226.605469 116.570312 225.585938 C 115.324219 224.566406 114.136719 223.488281 113 222.351562 C 111.863281 221.214844 110.785156 220.023438 109.765625 218.78125 C 108.746094 217.539062 107.789062 216.25 106.894531 214.914062 C 106.003906 213.578125 105.175781 212.199219 104.417969 210.78125 C 103.660156 209.363281 102.976562 207.914062 102.359375 206.429688 C 101.746094 204.941406 101.203125 203.429688 100.738281 201.894531 C 100.269531 200.355469 99.878906 198.796875 99.566406 197.21875 C 99.253906 195.644531 99.015625 194.054688 98.859375 192.457031 C 98.703125 190.855469 98.625 189.253906 98.625 187.644531 C 98.625 186.039062 98.703125 184.433594 98.859375 182.835938 C 99.015625 181.234375 99.253906 179.644531 99.566406 178.070312 C 99.878906 176.492188 100.269531 174.933594 100.738281 173.398438 C 101.203125 171.859375 101.746094 170.347656 102.359375 168.863281 C 102.976562 167.375 103.660156 165.925781 104.417969 164.507812 C 105.175781 163.089844 106.003906 161.710938 106.894531 160.375 C 107.789062 159.039062 108.746094 157.75 109.765625 156.507812 C 110.785156 155.265625 111.863281 154.074219 113 152.9375 C 114.136719 151.800781 115.328125 150.722656 116.570312 149.703125 C 117.8125 148.683594 119.101562 147.726562 120.4375 146.832031 C 121.773438 145.941406 123.152344 145.113281 124.570312 144.355469 C 125.988281 143.597656 127.441406 142.914062 128.925781 142.296875 C 130.410156 141.683594 131.921875 141.140625 133.460938 140.675781 C 135 140.207031 136.554688 139.816406 138.132812 139.503906 C 139.710938 139.191406 141.296875 138.953125 142.898438 138.796875 C 144.496094 138.640625 146.101562 138.558594 147.707031 138.558594 L 163.273438 138.550781 L 163.269531 135.792969 L 147.714844 135.792969 C 144.3125 135.785156 140.9375 136.109375 137.597656 136.769531 C 134.257812 137.429688 131.011719 138.410156 127.867188 139.714844 C 124.722656 141.015625 121.734375 142.617188 118.90625 144.511719 C 116.078125 146.40625 113.460938 148.5625 111.058594 150.976562 Z M 135.453125 175.367188 C 134.847656 175.96875 134.292969 176.613281 133.785156 177.296875 C 133.277344 177.984375 132.824219 178.703125 132.421875 179.453125 C 132.019531 180.203125 131.675781 180.980469 131.390625 181.785156 C 131.101562 182.585938 130.875 183.40625 130.710938 184.242188 C 130.542969 185.078125 130.4375 185.921875 130.398438 186.773438 C 130.355469 187.625 130.375 188.472656 130.460938 189.320312 C 130.542969 190.167969 130.6875 191.007812 130.894531 191.832031 C 131.101562 192.660156 131.371094 193.46875 131.695312 194.253906 C 132.023438 195.042969 132.402344 195.800781 132.84375 196.53125 C 133.28125 197.265625 133.769531 197.957031 134.308594 198.617188 C 134.851562 199.277344 135.4375 199.890625 136.066406 200.464844 C 136.699219 201.035156 137.371094 201.558594 138.078125 202.035156 C 138.785156 202.507812 139.527344 202.925781 140.296875 203.289062 C 141.066406 203.65625 141.859375 203.960938 142.675781 204.207031 C 143.492188 204.457031 144.320312 204.644531 145.164062 204.769531 C 146.007812 204.894531 146.855469 204.957031 147.707031 204.957031 L 147.707031 202.199219 C 146.75 202.199219 145.804688 202.105469 144.863281 201.921875 C 143.925781 201.734375 143.015625 201.457031 142.128906 201.089844 C 141.246094 200.726562 140.40625 200.277344 139.609375 199.742188 C 138.816406 199.210938 138.078125 198.609375 137.402344 197.929688 C 136.726562 197.253906 136.121094 196.519531 135.589844 195.722656 C 135.058594 194.925781 134.609375 194.085938 134.242188 193.203125 C 133.875 192.316406 133.597656 191.40625 133.414062 190.46875 C 133.226562 189.53125 133.132812 188.582031 133.132812 187.625 C 133.132812 186.667969 133.226562 185.71875 133.414062 184.78125 C 133.597656 183.84375 133.875 182.929688 134.242188 182.046875 C 134.609375 181.164062 135.058594 180.324219 135.589844 179.527344 C 136.121094 178.730469 136.726562 177.996094 137.402344 177.316406 C 138.078125 176.640625 138.816406 176.035156 139.609375 175.503906 C 140.40625 174.972656 141.246094 174.523438 142.128906 174.160156 C 143.015625 173.792969 143.925781 173.515625 144.863281 173.328125 C 145.804688 173.140625 146.75 173.046875 147.707031 173.046875 L 163.308594 173.070312 L 163.300781 170.3125 L 147.707031 170.3125 C 145.410156 170.308594 143.199219 170.742188 141.078125 171.621094 C 138.953125 172.5 137.082031 173.75 135.460938 175.378906 Z M 115.933594 155.847656 C 114.367188 157.410156 112.929688 159.078125 111.609375 160.855469 C 110.292969 162.628906 109.113281 164.492188 108.070312 166.441406 C 107.027344 168.390625 106.132812 170.40625 105.390625 172.488281 C 104.644531 174.570312 104.054688 176.695312 103.625 178.863281 C 103.191406 181.03125 102.921875 183.21875 102.8125 185.425781 C 102.703125 187.632812 102.757812 189.835938 102.976562 192.039062 C 103.191406 194.238281 103.566406 196.410156 104.105469 198.554688 C 104.640625 200.699219 105.335938 202.792969 106.179688 204.835938 C 107.027344 206.875 108.015625 208.847656 109.152344 210.742188 C 110.289062 212.636719 111.558594 214.441406 112.964844 216.148438 C 114.367188 217.859375 115.886719 219.453125 117.523438 220.9375 C 119.164062 222.421875 120.902344 223.777344 122.738281 225.007812 C 124.578125 226.234375 126.496094 227.320312 128.496094 228.265625 C 130.492188 229.210938 132.550781 230.003906 134.667969 230.644531 C 136.78125 231.285156 138.933594 231.765625 141.121094 232.089844 C 143.308594 232.414062 145.503906 232.574219 147.714844 232.574219 L 147.714844 229.816406 C 146.34375 229.804688 144.972656 229.722656 143.605469 229.578125 C 142.242188 229.433594 140.886719 229.21875 139.539062 228.941406 C 138.195312 228.664062 136.867188 228.320312 135.554688 227.910156 C 134.242188 227.503906 132.953125 227.03125 131.6875 226.496094 C 130.421875 225.960938 129.1875 225.367188 127.980469 224.714844 C 126.773438 224.058594 125.597656 223.347656 124.460938 222.578125 C 123.324219 221.808594 122.226562 220.984375 121.167969 220.105469 C 120.109375 219.230469 119.097656 218.304688 118.132812 217.328125 C 117.164062 216.351562 116.246094 215.332031 115.378906 214.265625 C 114.511719 213.199219 113.699219 212.097656 112.941406 210.949219 C 112.179688 209.804688 111.480469 208.628906 110.835938 207.414062 C 110.191406 206.199219 109.605469 204.957031 109.085938 203.6875 C 108.5625 202.417969 108.101562 201.125 107.707031 199.808594 C 107.308594 198.496094 106.976562 197.164062 106.710938 195.816406 C 106.445312 194.46875 106.246094 193.109375 106.109375 191.742188 C 105.976562 190.375 105.910156 189.007812 105.910156 187.632812 C 105.910156 186.257812 105.976562 184.886719 106.109375 183.519531 C 106.246094 182.152344 106.445312 180.796875 106.710938 179.449219 C 106.976562 178.101562 107.308594 176.769531 107.707031 175.453125 C 108.101562 174.140625 108.5625 172.847656 109.085938 171.578125 C 109.609375 170.304688 110.191406 169.0625 110.835938 167.851562 C 111.480469 166.636719 112.183594 165.457031 112.941406 164.3125 C 113.699219 163.167969 114.515625 162.0625 115.382812 161 C 116.25 159.933594 117.167969 158.914062 118.132812 157.9375 C 119.101562 156.960938 120.113281 156.035156 121.171875 155.160156 C 122.226562 154.28125 123.324219 153.460938 124.464844 152.691406 C 125.601562 151.921875 126.773438 151.207031 127.980469 150.554688 C 129.1875 149.898438 130.425781 149.304688 131.691406 148.769531 C 132.957031 148.234375 134.246094 147.765625 135.558594 147.355469 C 136.867188 146.949219 138.199219 146.605469 139.542969 146.324219 C 140.886719 146.046875 142.242188 145.835938 143.609375 145.6875 C 144.976562 145.542969 146.34375 145.464844 147.71875 145.453125 L 163.28125 145.453125 L 163.273438 142.695312 L 147.714844 142.695312 C 144.765625 142.6875 141.839844 142.96875 138.945312 143.542969 C 136.050781 144.113281 133.238281 144.964844 130.511719 146.09375 C 127.785156 147.222656 125.195312 148.609375 122.742188 150.253906 C 120.289062 151.898438 118.023438 153.765625 115.941406 155.859375 Z M 88.976562 187.632812 C 88.976562 189.554688 89.070312 191.476562 89.257812 193.390625 C 89.445312 195.304688 89.726562 197.207031 90.105469 199.09375 C 90.480469 200.980469 90.945312 202.84375 91.503906 204.683594 C 92.0625 206.527344 92.710938 208.335938 93.445312 210.113281 C 94.183594 211.890625 95.003906 213.628906 95.910156 215.324219 C 96.816406 217.019531 97.804688 218.667969 98.875 220.269531 C 99.941406 221.867188 101.085938 223.414062 102.308594 224.898438 C 103.527344 226.386719 104.820312 227.8125 106.179688 229.171875 C 107.539062 230.53125 108.964844 231.820312 110.453125 233.042969 C 111.9375 234.261719 113.480469 235.40625 115.082031 236.476562 C 116.679688 237.546875 118.328125 238.535156 120.027344 239.441406 C 121.722656 240.347656 123.460938 241.167969 125.238281 241.90625 C 127.015625 242.640625 128.824219 243.289062 130.667969 243.847656 C 132.507812 244.40625 134.371094 244.871094 136.257812 245.246094 C 138.144531 245.621094 140.046875 245.90625 141.960938 246.09375 C 143.875 246.28125 145.792969 246.375 147.71875 246.375 L 147.714844 243.621094 C 145.882812 243.621094 144.054688 243.53125 142.230469 243.351562 C 140.402344 243.171875 138.59375 242.902344 136.792969 242.542969 C 134.996094 242.1875 133.21875 241.742188 131.464844 241.210938 C 129.710938 240.675781 127.984375 240.0625 126.292969 239.359375 C 124.597656 238.65625 122.941406 237.875 121.324219 237.011719 C 119.707031 236.144531 118.136719 235.203125 116.613281 234.1875 C 115.085938 233.167969 113.617188 232.074219 112.199219 230.914062 C 110.78125 229.75 109.425781 228.519531 108.128906 227.222656 C 106.832031 225.925781 105.601562 224.570312 104.4375 223.152344 C 103.273438 221.734375 102.183594 220.265625 101.164062 218.738281 C 100.148438 217.214844 99.207031 215.644531 98.339844 214.027344 C 97.476562 212.410156 96.695312 210.753906 95.992188 209.058594 C 95.289062 207.367188 94.671875 205.640625 94.140625 203.886719 C 93.609375 202.132812 93.164062 200.355469 92.808594 198.558594 C 92.449219 196.757812 92.179688 194.945312 92 193.121094 C 91.820312 191.296875 91.730469 189.46875 91.730469 187.636719 C 91.730469 185.800781 91.820312 183.972656 92 182.148438 C 92.179688 180.320312 92.449219 178.511719 92.808594 176.710938 C 93.164062 174.914062 93.609375 173.136719 94.140625 171.382812 C 94.675781 169.628906 95.289062 167.902344 95.992188 166.210938 C 96.695312 164.515625 97.476562 162.859375 98.339844 161.242188 C 99.207031 159.625 100.148438 158.054688 101.167969 156.53125 C 102.183594 155.003906 103.277344 153.535156 104.4375 152.117188 C 105.601562 150.699219 106.832031 149.339844 108.128906 148.046875 C 109.425781 146.75 110.78125 145.519531 112.199219 144.355469 C 113.617188 143.191406 115.089844 142.101562 116.613281 141.082031 C 118.136719 140.0625 119.707031 139.121094 121.324219 138.257812 C 122.941406 137.394531 124.597656 136.609375 126.292969 135.910156 C 127.988281 135.207031 129.710938 134.589844 131.464844 134.058594 C 133.222656 133.527344 134.996094 133.082031 136.796875 132.722656 C 138.59375 132.367188 140.40625 132.097656 142.230469 131.917969 C 144.054688 131.738281 145.886719 131.648438 147.71875 131.648438 L 163.261719 131.648438 L 163.257812 128.890625 L 147.714844 128.890625 C 145.792969 128.890625 143.875 128.984375 141.957031 129.175781 C 140.042969 129.363281 138.144531 129.644531 136.257812 130.019531 C 134.371094 130.394531 132.507812 130.863281 130.664062 131.421875 C 128.824219 131.980469 127.015625 132.628906 125.238281 133.363281 C 123.460938 134.101562 121.722656 134.921875 120.027344 135.828125 C 118.328125 136.734375 116.683594 137.722656 115.082031 138.792969 C 113.484375 139.859375 111.9375 141.003906 110.453125 142.226562 C 108.964844 143.445312 107.542969 144.738281 106.179688 146.097656 C 104.820312 147.457031 103.53125 148.882812 102.308594 150.367188 C 101.089844 151.855469 99.945312 153.398438 98.875 155 C 97.808594 156.597656 96.820312 158.246094 95.914062 159.941406 C 95.003906 161.640625 94.183594 163.375 93.449219 165.152344 C 92.710938 166.929688 92.0625 168.738281 91.503906 170.582031 C 90.945312 172.421875 90.480469 174.285156 90.105469 176.171875 C 89.730469 178.058594 89.445312 179.960938 89.257812 181.875 C 89.070312 183.789062 88.976562 185.707031 88.976562 187.632812 Z M 88.976562 187.632812 " clip-rule="nonzero"/></clipPath><linearGradient x1="-4011.199939" gradientTransform="matrix(0.363935, 0, 0, 0.363935, 1549.102507, -1129.449133)" y1="3456.82838" x2="-3759.279494" gradientUnits="userSpaceOnUse" y2="3736.739057" id="92e278c426"><stop stop-opacity="1" stop-color="rgb(88.999939%, 28.199768%, 61.599731%)" offset="0"/><stop stop-opacity="1" stop-color="rgb(88.999939%, 28.199768%, 61.599731%)" offset="0.25"/><stop stop-opacity="1" stop-color="rgb(88.999939%, 28.199768%, 61.599731%)" offset="0.36283"/><stop stop-opacity="1" stop-color="rgb(88.999939%, 28.199768%, 61.599731%)" offset="0.375"/><stop stop-opacity="1" stop-color="rgb(88.999939%, 28.199768%, 61.599731%)" offset="0.4375"/><stop stop-opacity="1" stop-color="rgb(88.861084%, 28.184509%, 61.657715%)" offset="0.46875"/><stop stop-opacity="1" stop-color="rgb(87.109375%, 27.999878%, 62.413025%)" offset="0.472656"/><stop stop-opacity="1" stop-color="rgb(85.496521%, 27.828979%, 63.110352%)" offset="0.476562"/><stop stop-opacity="1" stop-color="rgb(83.882141%, 27.658081%, 63.806152%)" offset="0.480469"/><stop stop-opacity="1" stop-color="rgb(82.269287%, 27.488708%, 64.503479%)" offset="0.484375"/><stop stop-opacity="1" stop-color="rgb(80.654907%, 27.31781%, 65.19928%)" offset="0.488281"/><stop stop-opacity="1" stop-color="rgb(79.040527%, 27.146912%, 65.895081%)" offset="0.492188"/><stop stop-opacity="1" stop-color="rgb(77.426147%, 26.976013%, 66.590881%)" offset="0.496094"/><stop stop-opacity="1" stop-color="rgb(75.813293%, 26.806641%, 67.288208%)" offset="0.5"/><stop stop-opacity="1" stop-color="rgb(74.198914%, 26.635742%, 67.984009%)" offset="0.503906"/><stop stop-opacity="1" stop-color="rgb(72.58606%, 26.46637%, 68.681335%)" offset="0.507812"/><stop stop-opacity="1" stop-color="rgb(70.97168%, 26.295471%, 69.377136%)" offset="0.511719"/><stop stop-opacity="1" stop-color="rgb(69.358826%, 26.124573%, 70.072937%)" offset="0.515625"/><stop stop-opacity="1" stop-color="rgb(67.744446%, 25.953674%, 70.768738%)" offset="0.519531"/><stop stop-opacity="1" stop-color="rgb(66.130066%, 25.784302%, 71.466064%)" offset="0.523438"/><stop stop-opacity="1" stop-color="rgb(64.515686%, 25.613403%, 72.161865%)" offset="0.527344"/><stop stop-opacity="1" stop-color="rgb(62.902832%, 25.442505%, 72.859192%)" offset="0.53125"/><stop stop-opacity="1" stop-color="rgb(61.288452%, 25.271606%, 73.554993%)" offset="0.535156"/><stop stop-opacity="1" stop-color="rgb(59.675598%, 25.102234%, 74.250793%)" offset="0.539062"/><stop stop-opacity="1" stop-color="rgb(58.061218%, 24.931335%, 74.946594%)" offset="0.542969"/><stop stop-opacity="1" stop-color="rgb(56.448364%, 24.761963%, 75.643921%)" offset="0.546875"/><stop stop-opacity="1" stop-color="rgb(54.833984%, 24.591064%, 76.339722%)" offset="0.550781"/><stop stop-opacity="1" stop-color="rgb(53.219604%, 24.420166%, 77.037048%)" offset="0.554688"/><stop stop-opacity="1" stop-color="rgb(51.605225%, 24.249268%, 77.732849%)" offset="0.558594"/><stop stop-opacity="1" stop-color="rgb(49.992371%, 24.079895%, 78.42865%)" offset="0.5625"/><stop stop-opacity="1" stop-color="rgb(48.377991%, 23.908997%, 79.124451%)" offset="0.566406"/><stop stop-opacity="1" stop-color="rgb(46.765137%, 23.738098%, 79.821777%)" offset="0.570312"/><stop stop-opacity="1" stop-color="rgb(45.150757%, 23.5672%, 80.517578%)" offset="0.574219"/><stop stop-opacity="1" stop-color="rgb(43.537903%, 23.397827%, 81.214905%)" offset="0.578125"/><stop stop-opacity="1" stop-color="rgb(41.923523%, 23.226929%, 81.910706%)" offset="0.582031"/><stop stop-opacity="1" stop-color="rgb(40.309143%, 23.05603%, 82.606506%)" offset="0.585938"/><stop stop-opacity="1" stop-color="rgb(38.694763%, 22.885132%, 83.302307%)" offset="0.589844"/><stop stop-opacity="1" stop-color="rgb(37.081909%, 22.715759%, 83.999634%)" offset="0.59375"/><stop stop-opacity="1" stop-color="rgb(35.467529%, 22.544861%, 84.695435%)" offset="0.597656"/><stop stop-opacity="1" stop-color="rgb(33.854675%, 22.375488%, 85.392761%)" offset="0.601563"/><stop stop-opacity="1" stop-color="rgb(32.240295%, 22.20459%, 86.088562%)" offset="0.605469"/><stop stop-opacity="1" stop-color="rgb(30.627441%, 22.033691%, 86.784363%)" offset="0.609375"/><stop stop-opacity="1" stop-color="rgb(29.013062%, 21.862793%, 87.480164%)" offset="0.613281"/><stop stop-opacity="1" stop-color="rgb(27.398682%, 21.69342%, 88.17749%)" offset="0.617188"/><stop stop-opacity="1" stop-color="rgb(25.784302%, 21.522522%, 88.873291%)" offset="0.621094"/><stop stop-opacity="1" stop-color="rgb(24.171448%, 21.351624%, 89.569092%)" offset="0.625"/><stop stop-opacity="1" stop-color="rgb(22.557068%, 21.180725%, 90.264893%)" offset="0.628906"/><stop stop-opacity="1" stop-color="rgb(20.944214%, 21.011353%, 90.962219%)" offset="0.632812"/><stop stop-opacity="1" stop-color="rgb(19.329834%, 20.840454%, 91.65802%)" offset="0.636719"/><stop stop-opacity="1" stop-color="rgb(17.71698%, 20.671082%, 92.355347%)" offset="0.640625"/><stop stop-opacity="1" stop-color="rgb(16.1026%, 20.500183%, 93.051147%)" offset="0.644531"/><stop stop-opacity="1" stop-color="rgb(14.48822%, 20.329285%, 93.746948%)" offset="0.648437"/><stop stop-opacity="1" stop-color="rgb(12.87384%, 20.158386%, 94.442749%)" offset="0.652344"/><stop stop-opacity="1" stop-color="rgb(11.260986%, 19.989014%, 95.140076%)" offset="0.65625"/><stop stop-opacity="1" stop-color="rgb(9.646606%, 19.818115%, 95.835876%)" offset="0.660156"/><stop stop-opacity="1" stop-color="rgb(8.033752%, 19.647217%, 96.533203%)" offset="0.664062"/><stop stop-opacity="1" stop-color="rgb(6.419373%, 19.476318%, 97.229004%)" offset="0.667969"/><stop stop-opacity="1" stop-color="rgb(4.804993%, 19.306946%, 97.924805%)" offset="0.671875"/><stop stop-opacity="1" stop-color="rgb(3.190613%, 19.136047%, 98.620605%)" offset="0.675781"/><stop stop-opacity="1" stop-color="rgb(1.577759%, 18.966675%, 99.317932%)" offset="0.679688"/><stop stop-opacity="1" stop-color="rgb(0.788879%, 18.882751%, 99.658203%)" offset="0.683594"/><stop stop-opacity="1" stop-color="rgb(0%, 18.798828%, 100%)" offset="0.6875"/><stop stop-opacity="1" stop-color="rgb(0%, 18.798828%, 100%)" offset="0.75"/><stop stop-opacity="1" stop-color="rgb(0%, 18.798828%, 100%)" offset="1"/></linearGradient><clipPath id="72aca4ce31"><path d="M 147 63 L 207 63 L 207 247 L 147 247 Z M 147 63 " clip-rule="nonzero"/></clipPath><clipPath id="4f17982b55"><path d="M 159.578125 258.5625 L 63.054688 162.039062 L 162.226562 62.871094 L 258.746094 159.390625 Z M 159.578125 258.5625 " clip-rule="nonzero"/></clipPath><clipPath id="c4ec6aafe5"><path d="M 159.578125 258.5625 L 63.054688 162.039062 L 162.226562 62.871094 L 258.746094 159.390625 Z M 159.578125 258.5625 " clip-rule="nonzero"/></clipPath><clipPath id="c6ddc337c4"><path d="M 147.386719 209.167969 L 147.386719 211.921875 C 148.179688 211.917969 148.96875 211.878906 149.757812 211.800781 C 150.542969 211.722656 151.328125 211.605469 152.105469 211.449219 C 152.878906 211.296875 153.648438 211.101562 154.40625 210.871094 C 155.164062 210.640625 155.90625 210.375 156.640625 210.070312 C 157.371094 209.765625 158.085938 209.429688 158.785156 209.054688 C 159.484375 208.679688 160.160156 208.273438 160.820312 207.832031 C 161.476562 207.394531 162.113281 206.921875 162.726562 206.417969 C 163.335938 205.917969 163.925781 205.386719 164.484375 204.824219 C 165.042969 204.265625 165.574219 203.679688 166.078125 203.066406 C 166.582031 202.453125 167.050781 201.820312 167.492188 201.160156 C 167.933594 200.503906 168.339844 199.824219 168.714844 199.125 C 169.085938 198.425781 169.425781 197.710938 169.730469 196.980469 C 170.03125 196.25 170.300781 195.503906 170.53125 194.746094 C 170.761719 193.988281 170.953125 193.222656 171.109375 192.445312 C 171.265625 191.667969 171.382812 190.886719 171.460938 190.097656 C 171.539062 189.308594 171.578125 188.519531 171.578125 187.726562 L 171.578125 72.71875 L 168.824219 69.964844 L 168.824219 187.726562 C 168.824219 188.429688 168.789062 189.128906 168.71875 189.828125 C 168.648438 190.527344 168.546875 191.21875 168.410156 191.910156 C 168.269531 192.597656 168.101562 193.277344 167.894531 193.949219 C 167.691406 194.621094 167.457031 195.28125 167.1875 195.929688 C 166.917969 196.578125 166.617188 197.210938 166.285156 197.828125 C 165.957031 198.449219 165.59375 199.050781 165.203125 199.632812 C 164.816406 200.214844 164.398438 200.78125 163.953125 201.320312 C 163.507812 201.863281 163.035156 202.382812 162.539062 202.878906 C 162.042969 203.375 161.523438 203.847656 160.980469 204.292969 C 160.4375 204.738281 159.875 205.15625 159.292969 205.546875 C 158.707031 205.9375 158.105469 206.296875 157.488281 206.628906 C 156.867188 206.960938 156.234375 207.257812 155.585938 207.527344 C 154.9375 207.796875 154.277344 208.035156 153.605469 208.238281 C 152.933594 208.441406 152.253906 208.613281 151.566406 208.75 C 150.878906 208.886719 150.183594 208.992188 149.488281 209.0625 C 148.789062 209.128906 148.089844 209.164062 147.386719 209.167969 Z M 161.925781 187.738281 C 161.921875 188.691406 161.828125 189.636719 161.640625 190.574219 C 161.453125 191.511719 161.179688 192.421875 160.8125 193.300781 C 160.445312 194.183594 159.996094 195.023438 159.46875 195.816406 C 158.9375 196.609375 158.332031 197.34375 157.65625 198.019531 C 156.984375 198.695312 156.25 199.296875 155.453125 199.828125 C 154.660156 200.359375 153.824219 200.808594 152.941406 201.175781 C 152.058594 201.539062 151.148438 201.816406 150.210938 202.003906 C 149.277344 202.191406 148.332031 202.285156 147.375 202.285156 L 147.375 205.039062 C 147.941406 205.039062 148.507812 205.011719 149.070312 204.953125 C 149.632812 204.898438 150.195312 204.816406 150.75 204.703125 C 151.304688 204.59375 151.855469 204.453125 152.394531 204.289062 C 152.9375 204.125 153.46875 203.933594 153.992188 203.714844 C 154.515625 203.5 155.027344 203.257812 155.527344 202.988281 C 156.027344 202.722656 156.511719 202.433594 156.984375 202.117188 C 157.453125 201.800781 157.90625 201.464844 158.347656 201.105469 C 158.785156 200.746094 159.203125 200.367188 159.601562 199.964844 C 160.003906 199.566406 160.382812 199.144531 160.742188 198.707031 C 161.101562 198.269531 161.441406 197.816406 161.753906 197.34375 C 162.070312 196.875 162.359375 196.390625 162.628906 195.890625 C 162.894531 195.390625 163.136719 194.878906 163.355469 194.355469 C 163.570312 193.832031 163.761719 193.300781 163.925781 192.757812 C 164.09375 192.214844 164.230469 191.667969 164.339844 191.113281 C 164.453125 190.554688 164.535156 189.996094 164.59375 189.433594 C 164.648438 188.871094 164.675781 188.304688 164.679688 187.738281 L 164.683594 65.820312 L 161.933594 63.074219 Z M 167.417969 207.761719 C 166.105469 209.082031 164.675781 210.257812 163.128906 211.292969 C 161.585938 212.328125 159.953125 213.203125 158.234375 213.914062 C 156.511719 214.628906 154.742188 215.164062 152.914062 215.523438 C 151.089844 215.882812 149.246094 216.0625 147.386719 216.054688 L 147.386719 218.808594 C 148.402344 218.808594 149.417969 218.761719 150.433594 218.660156 C 151.445312 218.558594 152.453125 218.410156 153.449219 218.210938 C 154.449219 218.011719 155.433594 217.765625 156.410156 217.472656 C 157.382812 217.175781 158.339844 216.832031 159.28125 216.441406 C 160.222656 216.054688 161.140625 215.617188 162.039062 215.136719 C 162.9375 214.660156 163.808594 214.136719 164.65625 213.570312 C 165.5 213.003906 166.320312 212.398438 167.105469 211.753906 C 167.890625 211.105469 168.644531 210.425781 169.367188 209.703125 C 170.085938 208.984375 170.769531 208.230469 171.414062 207.445312 C 172.058594 206.65625 172.664062 205.839844 173.230469 204.996094 C 173.796875 204.148438 174.320312 203.277344 174.800781 202.378906 C 175.28125 201.480469 175.714844 200.5625 176.105469 199.621094 C 176.492188 198.679688 176.835938 197.722656 177.132812 196.75 C 177.425781 195.773438 177.675781 194.789062 177.875 193.789062 C 178.070312 192.789062 178.222656 191.785156 178.320312 190.773438 C 178.421875 189.757812 178.472656 188.742188 178.472656 187.726562 L 178.46875 79.605469 L 175.714844 76.851562 L 175.714844 187.726562 C 175.71875 189.589844 175.542969 191.433594 175.183594 193.257812 C 174.820312 195.082031 174.285156 196.855469 173.574219 198.574219 C 172.859375 200.292969 171.988281 201.925781 170.949219 203.472656 C 169.914062 205.019531 168.738281 206.449219 167.417969 207.761719 Z M 186.90625 227.25 C 184.316406 229.851562 181.496094 232.175781 178.449219 234.21875 C 175.398438 236.261719 172.175781 237.988281 168.785156 239.390625 C 165.394531 240.796875 161.898438 241.855469 158.296875 242.566406 C 154.695312 243.277344 151.058594 243.625 147.386719 243.617188 L 147.382812 246.367188 C 149.304688 246.367188 151.21875 246.273438 153.132812 246.085938 C 155.042969 245.898438 156.941406 245.617188 158.824219 245.242188 C 160.707031 244.867188 162.570312 244.402344 164.40625 243.84375 C 166.246094 243.285156 168.050781 242.640625 169.824219 241.90625 C 171.601562 241.171875 173.335938 240.351562 175.027344 239.445312 C 176.722656 238.539062 178.367188 237.554688 179.964844 236.484375 C 181.5625 235.417969 183.101562 234.277344 184.585938 233.058594 C 186.070312 231.839844 187.492188 230.550781 188.851562 229.191406 C 190.210938 227.835938 191.5 226.414062 192.714844 224.929688 C 193.933594 223.445312 195.078125 221.902344 196.144531 220.304688 C 197.210938 218.710938 198.199219 217.0625 199.101562 215.371094 C 200.007812 213.675781 200.828125 211.941406 201.5625 210.167969 C 202.296875 208.394531 202.945312 206.585938 203.503906 204.75 C 204.058594 202.910156 204.527344 201.050781 204.902344 199.164062 C 205.273438 197.28125 205.554688 195.382812 205.746094 193.472656 C 205.933594 191.5625 206.027344 189.644531 206.027344 187.726562 L 206.027344 107.164062 L 203.273438 104.414062 L 203.273438 187.726562 C 203.285156 191.398438 202.933594 195.035156 202.222656 198.636719 C 201.511719 202.238281 200.453125 205.734375 199.046875 209.128906 C 197.644531 212.519531 195.917969 215.742188 193.875 218.789062 C 191.832031 221.839844 189.507812 224.660156 186.90625 227.25 Z M 182.023438 222.367188 C 179.757812 224.652344 177.285156 226.6875 174.613281 228.480469 C 171.941406 230.273438 169.121094 231.785156 166.148438 233.019531 C 163.175781 234.253906 160.113281 235.183594 156.957031 235.808594 C 153.800781 236.433594 150.613281 236.742188 147.394531 236.738281 L 147.394531 239.488281 C 149.089844 239.488281 150.78125 239.40625 152.464844 239.238281 C 154.152344 239.074219 155.828125 238.824219 157.492188 238.496094 C 159.152344 238.164062 160.796875 237.753906 162.417969 237.261719 C 164.039062 236.769531 165.632812 236.199219 167.199219 235.550781 C 168.765625 234.902344 170.296875 234.179688 171.792969 233.378906 C 173.285156 232.582031 174.738281 231.710938 176.148438 230.769531 C 177.558594 229.828125 178.917969 228.816406 180.226562 227.742188 C 181.539062 226.667969 182.792969 225.53125 183.992188 224.332031 C 185.1875 223.132812 186.324219 221.878906 187.402344 220.570312 C 188.476562 219.257812 189.484375 217.898438 190.425781 216.488281 C 191.367188 215.078125 192.238281 213.628906 193.039062 212.132812 C 193.835938 210.636719 194.558594 209.105469 195.210938 207.542969 C 195.859375 205.976562 196.429688 204.382812 196.917969 202.757812 C 197.410156 201.136719 197.824219 199.496094 198.152344 197.832031 C 198.484375 196.167969 198.730469 194.496094 198.898438 192.808594 C 199.0625 191.121094 199.148438 189.429688 199.148438 187.734375 L 199.148438 100.285156 L 196.386719 97.523438 L 196.394531 187.738281 C 196.402344 190.957031 196.09375 194.144531 195.46875 197.300781 C 194.84375 200.457031 193.914062 203.523438 192.683594 206.496094 C 191.449219 209.46875 189.9375 212.289062 188.144531 214.964844 C 186.351562 217.636719 184.316406 220.105469 182.03125 222.375 Z M 177.144531 217.488281 C 175.191406 219.449219 173.066406 221.199219 170.765625 222.738281 C 168.46875 224.277344 166.039062 225.574219 163.484375 226.632812 C 160.925781 227.6875 158.292969 228.484375 155.578125 229.019531 C 152.863281 229.554688 150.121094 229.816406 147.355469 229.804688 L 147.382812 232.589844 C 148.851562 232.589844 150.320312 232.515625 151.78125 232.371094 C 153.242188 232.226562 154.695312 232.011719 156.136719 231.726562 C 157.578125 231.441406 159 231.082031 160.40625 230.65625 C 161.8125 230.230469 163.195312 229.738281 164.550781 229.175781 C 165.910156 228.613281 167.238281 227.984375 168.53125 227.292969 C 169.828125 226.597656 171.085938 225.84375 172.308594 225.027344 C 173.53125 224.210938 174.710938 223.339844 175.84375 222.40625 C 176.980469 221.472656 178.070312 220.488281 179.109375 219.449219 C 180.148438 218.410156 181.132812 217.324219 182.0625 216.1875 C 182.996094 215.050781 183.871094 213.871094 184.6875 212.652344 C 185.503906 211.429688 186.257812 210.171875 186.949219 208.875 C 187.644531 207.578125 188.269531 206.25 188.832031 204.894531 C 189.394531 203.535156 189.890625 202.15625 190.316406 200.75 C 190.742188 199.34375 191.097656 197.917969 191.386719 196.476562 C 191.671875 195.035156 191.886719 193.585938 192.03125 192.121094 C 192.175781 190.660156 192.246094 189.195312 192.246094 187.726562 L 192.25 93.386719 L 189.496094 90.632812 L 189.496094 187.742188 C 189.5 190.507812 189.238281 193.246094 188.699219 195.957031 C 188.164062 198.671875 187.367188 201.304688 186.308594 203.859375 C 185.25 206.414062 183.949219 208.839844 182.410156 211.136719 C 180.871094 213.433594 179.121094 215.554688 177.160156 217.503906 Z M 147.386719 222.945312 L 147.386719 225.699219 C 148.628906 225.699219 149.867188 225.636719 151.105469 225.511719 C 152.34375 225.390625 153.570312 225.207031 154.789062 224.960938 C 156.007812 224.71875 157.210938 224.414062 158.398438 224.054688 C 159.589844 223.691406 160.757812 223.273438 161.90625 222.796875 C 163.054688 222.320312 164.175781 221.789062 165.269531 221.203125 C 166.367188 220.613281 167.429688 219.976562 168.464844 219.285156 C 169.496094 218.59375 170.492188 217.855469 171.453125 217.066406 C 172.414062 216.277344 173.335938 215.445312 174.214844 214.566406 C 175.09375 213.6875 175.925781 212.765625 176.714844 211.804688 C 177.503906 210.847656 178.242188 209.847656 178.933594 208.816406 C 179.625 207.78125 180.261719 206.71875 180.851562 205.621094 C 181.4375 204.527344 181.96875 203.40625 182.445312 202.257812 C 182.921875 201.109375 183.339844 199.941406 183.703125 198.75 C 184.0625 197.5625 184.367188 196.359375 184.609375 195.140625 C 184.855469 193.921875 185.039062 192.695312 185.160156 191.457031 C 185.285156 190.21875 185.347656 188.980469 185.347656 187.738281 L 185.347656 86.519531 L 182.59375 83.765625 L 182.605469 187.726562 C 182.605469 188.878906 182.546875 190.03125 182.433594 191.179688 C 182.320312 192.328125 182.148438 193.464844 181.925781 194.597656 C 181.699219 195.726562 181.417969 196.84375 181.082031 197.949219 C 180.746094 199.050781 180.359375 200.136719 179.917969 201.203125 C 179.476562 202.265625 178.984375 203.308594 178.441406 204.324219 C 177.894531 205.34375 177.304688 206.328125 176.664062 207.289062 C 176.023438 208.246094 175.335938 209.171875 174.605469 210.0625 C 173.871094 210.957031 173.097656 211.808594 172.28125 212.625 C 171.46875 213.441406 170.613281 214.214844 169.722656 214.945312 C 168.832031 215.675781 167.90625 216.363281 166.945312 217.003906 C 165.988281 217.644531 165 218.238281 163.984375 218.78125 C 162.964844 219.324219 161.925781 219.816406 160.859375 220.257812 C 159.792969 220.699219 158.710938 221.089844 157.605469 221.425781 C 156.503906 221.761719 155.386719 222.039062 154.253906 222.265625 C 153.125 222.492188 151.984375 222.660156 150.835938 222.773438 C 149.691406 222.886719 148.539062 222.945312 147.386719 222.945312 Z M 147.386719 222.945312 " clip-rule="nonzero"/></clipPath><linearGradient x1="-50.471873" gradientTransform="matrix(-0.256903, -0.256903, 0.256903, -0.256903, 159.529832, 258.514614)" y1="-13.517598" x2="370.332592" gradientUnits="userSpaceOnUse" y2="498.601187" id="bc009a8809"><stop stop-opacity="1" stop-color="rgb(0%, 18.798828%, 100%)" offset="0"/><stop stop-opacity="1" stop-color="rgb(0%, 18.798828%, 100%)" offset="0.25"/><stop stop-opacity="1" stop-color="rgb(0%, 18.798828%, 100%)" offset="0.3125"/><stop stop-opacity="1" stop-color="rgb(0%, 18.798828%, 100%)" offset="0.320312"/><stop stop-opacity="1" stop-color="rgb(0.488281%, 18.850708%, 99.787903%)" offset="0.324219"/><stop stop-opacity="1" stop-color="rgb(0.976562%, 18.902588%, 99.577332%)" offset="0.328125"/><stop stop-opacity="1" stop-color="rgb(1.832581%, 18.992615%, 99.208069%)" offset="0.332031"/><stop stop-opacity="1" stop-color="rgb(2.688599%, 19.082642%, 98.838806%)" offset="0.335938"/><stop stop-opacity="1" stop-color="rgb(3.544617%, 19.172668%, 98.469543%)" offset="0.339844"/><stop stop-opacity="1" stop-color="rgb(4.400635%, 19.264221%, 98.100281%)" offset="0.34375"/><stop stop-opacity="1" stop-color="rgb(5.256653%, 19.354248%, 97.729492%)" offset="0.347656"/><stop stop-opacity="1" stop-color="rgb(6.114197%, 19.445801%, 97.360229%)" offset="0.351562"/><stop stop-opacity="1" stop-color="rgb(6.970215%, 19.535828%, 96.990967%)" offset="0.355469"/><stop stop-opacity="1" stop-color="rgb(7.826233%, 19.625854%, 96.621704%)" offset="0.359375"/><stop stop-opacity="1" stop-color="rgb(8.682251%, 19.715881%, 96.252441%)" offset="0.363281"/><stop stop-opacity="1" stop-color="rgb(9.539795%, 19.807434%, 95.883179%)" offset="0.367188"/><stop stop-opacity="1" stop-color="rgb(10.395813%, 19.897461%, 95.513916%)" offset="0.371094"/><stop stop-opacity="1" stop-color="rgb(11.251831%, 19.987488%, 95.144653%)" offset="0.375"/><stop stop-opacity="1" stop-color="rgb(12.107849%, 20.077515%, 94.773865%)" offset="0.378906"/><stop stop-opacity="1" stop-color="rgb(12.965393%, 20.169067%, 94.404602%)" offset="0.382812"/><stop stop-opacity="1" stop-color="rgb(13.821411%, 20.259094%, 94.035339%)" offset="0.386719"/><stop stop-opacity="1" stop-color="rgb(14.677429%, 20.349121%, 93.666077%)" offset="0.390625"/><stop stop-opacity="1" stop-color="rgb(15.533447%, 20.439148%, 93.296814%)" offset="0.394531"/><stop stop-opacity="1" stop-color="rgb(16.390991%, 20.530701%, 92.927551%)" offset="0.398438"/><stop stop-opacity="1" stop-color="rgb(17.247009%, 20.620728%, 92.556763%)" offset="0.402344"/><stop stop-opacity="1" stop-color="rgb(18.103027%, 20.710754%, 92.1875%)" offset="0.40625"/><stop stop-opacity="1" stop-color="rgb(18.959045%, 20.800781%, 91.818237%)" offset="0.410156"/><stop stop-opacity="1" stop-color="rgb(19.816589%, 20.892334%, 91.448975%)" offset="0.414062"/><stop stop-opacity="1" stop-color="rgb(20.672607%, 20.982361%, 91.079712%)" offset="0.417969"/><stop stop-opacity="1" stop-color="rgb(21.528625%, 21.073914%, 90.710449%)" offset="0.421875"/><stop stop-opacity="1" stop-color="rgb(22.384644%, 21.16394%, 90.339661%)" offset="0.425781"/><stop stop-opacity="1" stop-color="rgb(23.242188%, 21.253967%, 89.970398%)" offset="0.429688"/><stop stop-opacity="1" stop-color="rgb(24.098206%, 21.343994%, 89.601135%)" offset="0.433594"/><stop stop-opacity="1" stop-color="rgb(24.954224%, 21.435547%, 89.231873%)" offset="0.4375"/><stop stop-opacity="1" stop-color="rgb(25.810242%, 21.525574%, 88.86261%)" offset="0.441406"/><stop stop-opacity="1" stop-color="rgb(26.667786%, 21.615601%, 88.493347%)" offset="0.445312"/><stop stop-opacity="1" stop-color="rgb(27.523804%, 21.705627%, 88.122559%)" offset="0.449219"/><stop stop-opacity="1" stop-color="rgb(28.379822%, 21.79718%, 87.753296%)" offset="0.453125"/><stop stop-opacity="1" stop-color="rgb(29.23584%, 21.887207%, 87.384033%)" offset="0.457031"/><stop stop-opacity="1" stop-color="rgb(30.093384%, 21.977234%, 87.014771%)" offset="0.460938"/><stop stop-opacity="1" stop-color="rgb(30.949402%, 22.067261%, 86.645508%)" offset="0.464844"/><stop stop-opacity="1" stop-color="rgb(31.80542%, 22.158813%, 86.276245%)" offset="0.46875"/><stop stop-opacity="1" stop-color="rgb(32.661438%, 22.24884%, 85.906982%)" offset="0.472656"/><stop stop-opacity="1" stop-color="rgb(33.518982%, 22.338867%, 85.53772%)" offset="0.476562"/><stop stop-opacity="1" stop-color="rgb(34.375%, 22.428894%, 85.166931%)" offset="0.480469"/><stop stop-opacity="1" stop-color="rgb(35.231018%, 22.520447%, 84.797668%)" offset="0.484375"/><stop stop-opacity="1" stop-color="rgb(36.087036%, 22.610474%, 84.428406%)" offset="0.488281"/><stop stop-opacity="1" stop-color="rgb(36.943054%, 22.7005%, 84.059143%)" offset="0.492188"/><stop stop-opacity="1" stop-color="rgb(37.799072%, 22.790527%, 83.68988%)" offset="0.496094"/><stop stop-opacity="1" stop-color="rgb(38.656616%, 22.88208%, 83.320618%)" offset="0.5"/><stop stop-opacity="1" stop-color="rgb(39.512634%, 22.972107%, 82.949829%)" offset="0.503906"/><stop stop-opacity="1" stop-color="rgb(40.368652%, 23.06366%, 82.580566%)" offset="0.507812"/><stop stop-opacity="1" stop-color="rgb(41.22467%, 23.153687%, 82.211304%)" offset="0.511719"/><stop stop-opacity="1" stop-color="rgb(42.082214%, 23.243713%, 81.842041%)" offset="0.515625"/><stop stop-opacity="1" stop-color="rgb(42.938232%, 23.33374%, 81.472778%)" offset="0.519531"/><stop stop-opacity="1" stop-color="rgb(43.79425%, 23.425293%, 81.103516%)" offset="0.523438"/><stop stop-opacity="1" stop-color="rgb(44.650269%, 23.51532%, 80.732727%)" offset="0.527344"/><stop stop-opacity="1" stop-color="rgb(45.507812%, 23.605347%, 80.363464%)" offset="0.53125"/><stop stop-opacity="1" stop-color="rgb(46.363831%, 23.695374%, 79.994202%)" offset="0.535156"/><stop stop-opacity="1" stop-color="rgb(47.219849%, 23.786926%, 79.624939%)" offset="0.539062"/><stop stop-opacity="1" stop-color="rgb(48.075867%, 23.876953%, 79.255676%)" offset="0.542969"/><stop stop-opacity="1" stop-color="rgb(48.933411%, 23.96698%, 78.886414%)" offset="0.546875"/><stop stop-opacity="1" stop-color="rgb(49.789429%, 24.057007%, 78.517151%)" offset="0.550781"/><stop stop-opacity="1" stop-color="rgb(50.645447%, 24.14856%, 78.147888%)" offset="0.554688"/><stop stop-opacity="1" stop-color="rgb(51.501465%, 24.238586%, 77.7771%)" offset="0.558594"/><stop stop-opacity="1" stop-color="rgb(52.359009%, 24.328613%, 77.407837%)" offset="0.5625"/><stop stop-opacity="1" stop-color="rgb(53.215027%, 24.41864%, 77.038574%)" offset="0.566406"/><stop stop-opacity="1" stop-color="rgb(54.071045%, 24.510193%, 76.669312%)" offset="0.570312"/><stop stop-opacity="1" stop-color="rgb(54.927063%, 24.60022%, 76.300049%)" offset="0.574219"/><stop stop-opacity="1" stop-color="rgb(55.784607%, 24.691772%, 75.930786%)" offset="0.578125"/><stop stop-opacity="1" stop-color="rgb(56.640625%, 24.781799%, 75.559998%)" offset="0.582031"/><stop stop-opacity="1" stop-color="rgb(57.496643%, 24.871826%, 75.190735%)" offset="0.585938"/><stop stop-opacity="1" stop-color="rgb(58.352661%, 24.961853%, 74.821472%)" offset="0.589844"/><stop stop-opacity="1" stop-color="rgb(59.210205%, 25.053406%, 74.452209%)" offset="0.59375"/><stop stop-opacity="1" stop-color="rgb(60.066223%, 25.143433%, 74.082947%)" offset="0.597656"/><stop stop-opacity="1" stop-color="rgb(60.922241%, 25.233459%, 73.713684%)" offset="0.601562"/><stop stop-opacity="1" stop-color="rgb(61.778259%, 25.323486%, 73.342896%)" offset="0.605469"/><stop stop-opacity="1" stop-color="rgb(62.635803%, 25.415039%, 72.973633%)" offset="0.609375"/><stop stop-opacity="1" stop-color="rgb(63.491821%, 25.505066%, 72.60437%)" offset="0.613281"/><stop stop-opacity="1" stop-color="rgb(64.347839%, 25.595093%, 72.235107%)" offset="0.617188"/><stop stop-opacity="1" stop-color="rgb(65.203857%, 25.68512%, 71.865845%)" offset="0.621094"/><stop stop-opacity="1" stop-color="rgb(66.061401%, 25.776672%, 71.496582%)" offset="0.625"/><stop stop-opacity="1" stop-color="rgb(66.917419%, 25.866699%, 71.127319%)" offset="0.628906"/><stop stop-opacity="1" stop-color="rgb(67.773438%, 25.956726%, 70.758057%)" offset="0.632812"/><stop stop-opacity="1" stop-color="rgb(68.629456%, 26.046753%, 70.387268%)" offset="0.636719"/><stop stop-opacity="1" stop-color="rgb(69.485474%, 26.138306%, 70.018005%)" offset="0.640625"/><stop stop-opacity="1" stop-color="rgb(70.341492%, 26.228333%, 69.648743%)" offset="0.644531"/><stop stop-opacity="1" stop-color="rgb(71.199036%, 26.319885%, 69.27948%)" offset="0.648438"/><stop stop-opacity="1" stop-color="rgb(72.055054%, 26.409912%, 68.910217%)" offset="0.652344"/><stop stop-opacity="1" stop-color="rgb(72.911072%, 26.499939%, 68.540955%)" offset="0.65625"/><stop stop-opacity="1" stop-color="rgb(73.76709%, 26.589966%, 68.170166%)" offset="0.660156"/><stop stop-opacity="1" stop-color="rgb(74.624634%, 26.681519%, 67.800903%)" offset="0.664062"/><stop stop-opacity="1" stop-color="rgb(75.480652%, 26.771545%, 67.431641%)" offset="0.667969"/><stop stop-opacity="1" stop-color="rgb(76.33667%, 26.861572%, 67.062378%)" offset="0.671875"/><stop stop-opacity="1" stop-color="rgb(77.192688%, 26.951599%, 66.693115%)" offset="0.675781"/><stop stop-opacity="1" stop-color="rgb(78.050232%, 27.043152%, 66.323853%)" offset="0.679688"/><stop stop-opacity="1" stop-color="rgb(78.90625%, 27.133179%, 65.953064%)" offset="0.683594"/><stop stop-opacity="1" stop-color="rgb(79.762268%, 27.223206%, 65.583801%)" offset="0.6875"/><stop stop-opacity="1" stop-color="rgb(80.618286%, 27.313232%, 65.214539%)" offset="0.691406"/><stop stop-opacity="1" stop-color="rgb(81.47583%, 27.404785%, 64.845276%)" offset="0.695312"/><stop stop-opacity="1" stop-color="rgb(82.331848%, 27.494812%, 64.476013%)" offset="0.699219"/><stop stop-opacity="1" stop-color="rgb(83.187866%, 27.584839%, 64.10675%)" offset="0.703125"/><stop stop-opacity="1" stop-color="rgb(84.043884%, 27.674866%, 63.735962%)" offset="0.707031"/><stop stop-opacity="1" stop-color="rgb(84.901428%, 27.766418%, 63.366699%)" offset="0.710938"/><stop stop-opacity="1" stop-color="rgb(85.757446%, 27.856445%, 62.997437%)" offset="0.714844"/><stop stop-opacity="1" stop-color="rgb(86.613464%, 27.947998%, 62.628174%)" offset="0.71875"/><stop stop-opacity="1" stop-color="rgb(87.469482%, 28.038025%, 62.258911%)" offset="0.722656"/><stop stop-opacity="1" stop-color="rgb(88.327026%, 28.128052%, 61.889648%)" offset="0.726562"/><stop stop-opacity="1" stop-color="rgb(88.66272%, 28.163147%, 61.74469%)" offset="0.730469"/><stop stop-opacity="1" stop-color="rgb(88.999939%, 28.199768%, 61.599731%)" offset="0.734375"/><stop stop-opacity="1" stop-color="rgb(88.999939%, 28.199768%, 61.599731%)" offset="0.75"/><stop stop-opacity="1" stop-color="rgb(88.999939%, 28.199768%, 61.599731%)" offset="1"/></linearGradient><clipPath id="2ac94a0498"><path d="M 200 116 L 260 116 L 260 300 L 200 300 Z M 200 116 " clip-rule="nonzero"/></clipPath><clipPath id="17a84117ed"><path d="M 213.101562 311.960938 L 116.582031 215.441406 L 215.753906 116.269531 L 312.273438 212.789062 Z M 213.101562 311.960938 " clip-rule="nonzero"/></clipPath><clipPath id="9e50c2e240"><path d="M 213.101562 311.960938 L 116.582031 215.441406 L 215.753906 116.269531 L 312.273438 212.789062 Z M 213.101562 311.960938 " clip-rule="nonzero"/></clipPath><clipPath id="be9d49e8cf"><path d="M 200.910156 262.566406 L 200.910156 265.320312 C 201.703125 265.320312 202.492188 265.28125 203.28125 265.203125 C 204.070312 265.125 204.851562 265.007812 205.628906 264.851562 C 206.40625 264.695312 207.171875 264.503906 207.929688 264.273438 C 208.6875 264.042969 209.433594 263.777344 210.164062 263.472656 C 210.898438 263.167969 211.613281 262.828125 212.308594 262.457031 C 213.007812 262.082031 213.6875 261.675781 214.34375 261.234375 C 215.003906 260.796875 215.640625 260.324219 216.25 259.820312 C 216.863281 259.320312 217.449219 258.785156 218.011719 258.226562 C 218.570312 257.667969 219.101562 257.082031 219.605469 256.46875 C 220.105469 255.855469 220.578125 255.222656 221.019531 254.5625 C 221.457031 253.902344 221.867188 253.226562 222.238281 252.527344 C 222.613281 251.828125 222.953125 251.113281 223.253906 250.382812 C 223.558594 249.652344 223.824219 248.90625 224.054688 248.148438 C 224.285156 247.390625 224.480469 246.625 224.632812 245.847656 C 224.789062 245.070312 224.90625 244.289062 224.984375 243.5 C 225.0625 242.710938 225.101562 241.921875 225.105469 241.128906 L 225.105469 126.117188 L 222.351562 123.363281 L 222.351562 241.128906 C 222.351562 241.832031 222.316406 242.53125 222.246094 243.230469 C 222.175781 243.929688 222.070312 244.621094 221.933594 245.308594 C 221.796875 246 221.625 246.679688 221.421875 247.351562 C 221.21875 248.019531 220.980469 248.679688 220.710938 249.328125 C 220.445312 249.976562 220.144531 250.613281 219.8125 251.230469 C 219.480469 251.847656 219.121094 252.449219 218.730469 253.035156 C 218.339844 253.617188 217.921875 254.179688 217.476562 254.722656 C 217.03125 255.265625 216.5625 255.785156 216.066406 256.28125 C 215.566406 256.777344 215.050781 257.25 214.507812 257.695312 C 213.964844 258.140625 213.402344 258.558594 212.816406 258.949219 C 212.234375 259.335938 211.632812 259.699219 211.011719 260.03125 C 210.394531 260.359375 209.761719 260.660156 209.113281 260.929688 C 208.464844 261.199219 207.804688 261.433594 207.132812 261.640625 C 206.460938 261.84375 205.78125 262.015625 205.09375 262.152344 C 204.40625 262.289062 203.710938 262.394531 203.011719 262.460938 C 202.3125 262.53125 201.613281 262.566406 200.910156 262.566406 Z M 215.449219 241.140625 C 215.449219 242.09375 215.355469 243.039062 215.167969 243.976562 C 214.980469 244.914062 214.703125 245.820312 214.339844 246.703125 C 213.972656 247.585938 213.523438 248.425781 212.992188 249.21875 C 212.460938 250.011719 211.859375 250.746094 211.183594 251.421875 C 210.507812 252.097656 209.773438 252.699219 208.980469 253.230469 C 208.1875 253.761719 207.347656 254.210938 206.464844 254.574219 C 205.585938 254.941406 204.675781 255.21875 203.738281 255.40625 C 202.800781 255.59375 201.855469 255.6875 200.902344 255.6875 L 200.902344 258.441406 C 201.46875 258.441406 202.03125 258.414062 202.597656 258.355469 C 203.160156 258.300781 203.71875 258.214844 204.277344 258.105469 C 204.832031 257.992188 205.378906 257.855469 205.921875 257.691406 C 206.464844 257.527344 206.996094 257.335938 207.519531 257.117188 C 208.042969 256.902344 208.554688 256.660156 209.054688 256.390625 C 209.550781 256.125 210.039062 255.832031 210.507812 255.519531 C 210.980469 255.203125 211.433594 254.867188 211.871094 254.507812 C 212.308594 254.148438 212.730469 253.765625 213.128906 253.367188 C 213.53125 252.964844 213.910156 252.546875 214.269531 252.109375 C 214.628906 251.671875 214.964844 251.21875 215.28125 250.746094 C 215.59375 250.273438 215.886719 249.789062 216.152344 249.289062 C 216.421875 248.792969 216.664062 248.28125 216.878906 247.757812 C 217.097656 247.234375 217.289062 246.699219 217.453125 246.160156 C 217.617188 245.617188 217.757812 245.070312 217.867188 244.511719 C 217.980469 243.957031 218.0625 243.398438 218.117188 242.835938 C 218.175781 242.269531 218.203125 241.707031 218.203125 241.140625 L 218.210938 119.222656 L 215.460938 116.472656 Z M 220.941406 261.164062 C 219.628906 262.480469 218.203125 263.660156 216.65625 264.695312 C 215.109375 265.730469 213.476562 266.605469 211.757812 267.316406 C 210.039062 268.027344 208.265625 268.566406 206.441406 268.925781 C 204.617188 269.285156 202.773438 269.464844 200.910156 269.457031 L 200.910156 272.210938 C 201.929688 272.210938 202.945312 272.160156 203.957031 272.0625 C 204.972656 271.960938 205.976562 271.8125 206.976562 271.613281 C 207.972656 271.414062 208.960938 271.167969 209.933594 270.871094 C 210.910156 270.578125 211.867188 270.234375 212.808594 269.84375 C 213.746094 269.453125 214.667969 269.019531 215.566406 268.539062 C 216.460938 268.058594 217.335938 267.539062 218.179688 266.972656 C 219.027344 266.40625 219.84375 265.800781 220.632812 265.15625 C 221.417969 264.507812 222.171875 263.824219 222.890625 263.105469 C 223.609375 262.386719 224.292969 261.632812 224.941406 260.84375 C 225.585938 260.058594 226.191406 259.242188 226.757812 258.394531 C 227.324219 257.550781 227.84375 256.675781 228.324219 255.777344 C 228.804688 254.882812 229.242188 253.960938 229.628906 253.023438 C 230.019531 252.082031 230.363281 251.125 230.65625 250.148438 C 230.953125 249.175781 231.199219 248.1875 231.398438 247.191406 C 231.597656 246.191406 231.746094 245.1875 231.847656 244.171875 C 231.945312 243.160156 231.996094 242.144531 231.996094 241.125 L 231.996094 133.007812 L 229.242188 130.253906 L 229.242188 241.128906 C 229.246094 242.988281 229.066406 244.832031 228.707031 246.660156 C 228.347656 248.484375 227.8125 250.257812 227.097656 251.976562 C 226.386719 253.695312 225.511719 255.328125 224.476562 256.875 C 223.441406 258.421875 222.261719 259.851562 220.941406 261.164062 Z M 240.429688 280.652344 C 237.84375 283.253906 235.023438 285.578125 231.972656 287.621094 C 228.921875 289.664062 225.703125 291.386719 222.3125 292.792969 C 218.917969 294.199219 215.421875 295.253906 211.820312 295.964844 C 208.21875 296.679688 204.582031 297.027344 200.910156 297.019531 L 200.910156 299.769531 C 202.828125 299.769531 204.746094 299.675781 206.65625 299.488281 C 208.570312 299.300781 210.464844 299.019531 212.351562 298.644531 C 214.234375 298.269531 216.09375 297.804688 217.933594 297.246094 C 219.769531 296.6875 221.578125 296.042969 223.351562 295.308594 C 225.125 294.570312 226.859375 293.75 228.554688 292.847656 C 230.25 291.941406 231.894531 290.953125 233.492188 289.886719 C 235.085938 288.820312 236.628906 287.679688 238.113281 286.460938 C 239.597656 285.242188 241.019531 283.953125 242.378906 282.59375 C 243.734375 281.238281 245.023438 279.816406 246.242188 278.332031 C 247.460938 276.84375 248.605469 275.304688 249.671875 273.707031 C 250.738281 272.109375 251.722656 270.464844 252.628906 268.769531 C 253.535156 267.078125 254.355469 265.34375 255.089844 263.570312 C 255.824219 261.792969 256.472656 259.988281 257.027344 258.148438 C 257.585938 256.3125 258.050781 254.449219 258.425781 252.566406 C 258.800781 250.683594 259.082031 248.785156 259.269531 246.875 C 259.457031 244.964844 259.550781 243.046875 259.550781 241.125 L 259.550781 160.566406 L 256.800781 157.816406 L 256.800781 241.128906 C 256.8125 244.800781 256.460938 248.4375 255.75 252.039062 C 255.039062 255.640625 253.980469 259.136719 252.574219 262.53125 C 251.167969 265.921875 249.445312 269.140625 247.402344 272.191406 C 245.359375 275.242188 243.035156 278.0625 240.429688 280.652344 Z M 235.550781 275.769531 C 233.28125 278.050781 230.8125 280.089844 228.140625 281.882812 C 225.46875 283.675781 222.648438 285.1875 219.675781 286.421875 C 216.703125 287.652344 213.640625 288.582031 210.484375 289.210938 C 207.328125 289.835938 204.140625 290.144531 200.921875 290.136719 L 200.917969 292.890625 C 202.613281 292.890625 204.304688 292.808594 205.992188 292.640625 C 207.679688 292.476562 209.355469 292.226562 211.015625 291.894531 C 212.679688 291.566406 214.320312 291.15625 215.945312 290.664062 C 217.566406 290.171875 219.160156 289.601562 220.726562 288.953125 C 222.292969 288.304688 223.820312 287.578125 225.316406 286.78125 C 226.8125 285.980469 228.265625 285.109375 229.671875 284.167969 C 231.082031 283.226562 232.441406 282.21875 233.753906 281.144531 C 235.0625 280.070312 236.316406 278.933594 237.515625 277.734375 C 238.714844 276.535156 239.851562 275.28125 240.925781 273.96875 C 242.003906 272.660156 243.011719 271.300781 243.953125 269.890625 C 244.894531 268.480469 245.765625 267.027344 246.5625 265.535156 C 247.363281 264.039062 248.085938 262.507812 248.734375 260.941406 C 249.382812 259.375 249.953125 257.78125 250.445312 256.160156 C 250.9375 254.539062 251.347656 252.894531 251.679688 251.234375 C 252.011719 249.570312 252.257812 247.894531 252.425781 246.210938 C 252.589844 244.523438 252.671875 242.832031 252.671875 241.136719 L 252.671875 153.6875 L 249.910156 150.925781 L 249.921875 241.140625 C 249.929688 244.359375 249.621094 247.546875 248.996094 250.703125 C 248.371094 253.859375 247.441406 256.925781 246.207031 259.898438 C 244.976562 262.871094 243.460938 265.691406 241.671875 268.363281 C 239.878906 271.039062 237.839844 273.507812 235.558594 275.777344 Z M 230.667969 270.886719 C 228.71875 272.847656 226.589844 274.597656 224.292969 276.136719 C 221.992188 277.675781 219.566406 278.976562 217.007812 280.03125 C 214.453125 281.089844 211.816406 281.886719 209.101562 282.417969 C 206.386719 282.953125 203.648438 283.214844 200.882812 283.207031 L 200.910156 285.988281 C 202.378906 285.988281 203.84375 285.917969 205.308594 285.773438 C 206.769531 285.628906 208.222656 285.414062 209.660156 285.128906 C 211.101562 284.839844 212.527344 284.484375 213.933594 284.058594 C 215.339844 283.632812 216.722656 283.136719 218.078125 282.574219 C 219.4375 282.011719 220.761719 281.386719 222.058594 280.691406 C 223.355469 280 224.613281 279.246094 225.835938 278.429688 C 227.054688 277.613281 228.234375 276.738281 229.371094 275.808594 C 230.507812 274.875 231.59375 273.890625 232.632812 272.851562 C 233.671875 271.8125 234.65625 270.722656 235.589844 269.589844 C 236.523438 268.453125 237.398438 267.273438 238.210938 266.050781 C 239.027344 264.832031 239.785156 263.570312 240.476562 262.277344 C 241.167969 260.980469 241.796875 259.652344 242.359375 258.296875 C 242.921875 256.9375 243.414062 255.554688 243.839844 254.148438 C 244.269531 252.742188 244.625 251.320312 244.910156 249.878906 C 245.199219 248.4375 245.414062 246.984375 245.558594 245.523438 C 245.699219 244.0625 245.773438 242.597656 245.773438 241.125 L 245.773438 146.789062 L 243.019531 144.035156 L 243.019531 241.144531 C 243.027344 243.910156 242.761719 246.648438 242.226562 249.359375 C 241.6875 252.074219 240.890625 254.707031 239.832031 257.261719 C 238.773438 259.816406 237.476562 262.238281 235.9375 264.535156 C 234.398438 266.832031 232.648438 268.957031 230.6875 270.90625 Z M 200.910156 276.347656 L 200.910156 279.101562 C 202.15625 279.101562 203.394531 279.039062 204.632812 278.914062 C 205.867188 278.789062 207.09375 278.605469 208.3125 278.363281 C 209.53125 278.121094 210.738281 277.816406 211.925781 277.453125 C 213.113281 277.09375 214.28125 276.675781 215.429688 276.199219 C 216.578125 275.722656 217.699219 275.191406 218.796875 274.601562 C 219.890625 274.015625 220.957031 273.378906 221.988281 272.6875 C 223.023438 271.996094 224.019531 271.257812 224.980469 270.46875 C 225.941406 269.679688 226.859375 268.84375 227.738281 267.964844 C 228.617188 267.089844 229.453125 266.167969 230.242188 265.207031 C 231.027344 264.246094 231.769531 263.25 232.460938 262.21875 C 233.152344 261.183594 233.789062 260.121094 234.375 259.023438 C 234.960938 257.929688 235.492188 256.804688 235.96875 255.660156 C 236.445312 254.511719 236.867188 253.34375 237.226562 252.152344 C 237.589844 250.964844 237.890625 249.761719 238.136719 248.542969 C 238.378906 247.324219 238.5625 246.09375 238.6875 244.859375 C 238.808594 243.621094 238.871094 242.382812 238.875 241.140625 L 238.875 139.917969 L 236.121094 137.164062 L 236.128906 241.128906 C 236.128906 242.28125 236.074219 243.433594 235.960938 244.582031 C 235.84375 245.726562 235.675781 246.867188 235.449219 248 C 235.226562 249.128906 234.945312 250.246094 234.609375 251.351562 C 234.273438 252.453125 233.886719 253.539062 233.445312 254.601562 C 233.003906 255.667969 232.507812 256.710938 231.964844 257.726562 C 231.421875 258.742188 230.828125 259.730469 230.1875 260.691406 C 229.546875 261.648438 228.859375 262.574219 228.128906 263.464844 C 227.398438 264.355469 226.625 265.210938 225.808594 266.027344 C 224.992188 266.839844 224.140625 267.613281 223.25 268.347656 C 222.355469 269.078125 221.433594 269.765625 220.472656 270.40625 C 219.515625 271.046875 218.527344 271.636719 217.507812 272.183594 C 216.492188 272.726562 215.453125 273.21875 214.386719 273.660156 C 213.320312 274.101562 212.234375 274.492188 211.132812 274.824219 C 210.03125 275.160156 208.914062 275.441406 207.78125 275.667969 C 206.648438 275.894531 205.511719 276.0625 204.363281 276.175781 C 203.214844 276.289062 202.066406 276.347656 200.910156 276.347656 Z M 200.910156 276.347656 " clip-rule="nonzero"/></clipPath><linearGradient x1="-50.471884" gradientTransform="matrix(-0.256903, -0.256903, 0.256903, -0.256903, 213.055659, 311.916011)" y1="-13.517611" x2="370.332581" gradientUnits="userSpaceOnUse" y2="498.601174" id="38810c15bd"><stop stop-opacity="1" stop-color="rgb(0%, 18.798828%, 100%)" offset="0"/><stop stop-opacity="1" stop-color="rgb(0%, 18.798828%, 100%)" offset="0.25"/><stop stop-opacity="1" stop-color="rgb(0%, 18.798828%, 100%)" offset="0.3125"/><stop stop-opacity="1" stop-color="rgb(0%, 18.798828%, 100%)" offset="0.320313"/><stop stop-opacity="1" stop-color="rgb(0.488281%, 18.850708%, 99.787903%)" offset="0.324219"/><stop stop-opacity="1" stop-color="rgb(0.976562%, 18.902588%, 99.577332%)" offset="0.328125"/><stop stop-opacity="1" stop-color="rgb(1.832581%, 18.992615%, 99.208069%)" offset="0.332031"/><stop stop-opacity="1" stop-color="rgb(2.688599%, 19.082642%, 98.838806%)" offset="0.335938"/><stop stop-opacity="1" stop-color="rgb(3.544617%, 19.172668%, 98.469543%)" offset="0.339844"/><stop stop-opacity="1" stop-color="rgb(4.400635%, 19.264221%, 98.100281%)" offset="0.34375"/><stop stop-opacity="1" stop-color="rgb(5.256653%, 19.354248%, 97.729492%)" offset="0.347656"/><stop stop-opacity="1" stop-color="rgb(6.114197%, 19.445801%, 97.360229%)" offset="0.351562"/><stop stop-opacity="1" stop-color="rgb(6.970215%, 19.535828%, 96.990967%)" offset="0.355469"/><stop stop-opacity="1" stop-color="rgb(7.826233%, 19.625854%, 96.621704%)" offset="0.359375"/><stop stop-opacity="1" stop-color="rgb(8.682251%, 19.715881%, 96.252441%)" offset="0.363281"/><stop stop-opacity="1" stop-color="rgb(9.539795%, 19.807434%, 95.883179%)" offset="0.367188"/><stop stop-opacity="1" stop-color="rgb(10.395813%, 19.897461%, 95.513916%)" offset="0.371094"/><stop stop-opacity="1" stop-color="rgb(11.251831%, 19.987488%, 95.144653%)" offset="0.375"/><stop stop-opacity="1" stop-color="rgb(12.107849%, 20.077515%, 94.773865%)" offset="0.378906"/><stop stop-opacity="1" stop-color="rgb(12.965393%, 20.169067%, 94.404602%)" offset="0.382812"/><stop stop-opacity="1" stop-color="rgb(13.821411%, 20.259094%, 94.035339%)" offset="0.386719"/><stop stop-opacity="1" stop-color="rgb(14.677429%, 20.349121%, 93.666077%)" offset="0.390625"/><stop stop-opacity="1" stop-color="rgb(15.533447%, 20.439148%, 93.296814%)" offset="0.394531"/><stop stop-opacity="1" stop-color="rgb(16.390991%, 20.530701%, 92.927551%)" offset="0.398438"/><stop stop-opacity="1" stop-color="rgb(17.247009%, 20.620728%, 92.556763%)" offset="0.402344"/><stop stop-opacity="1" stop-color="rgb(18.103027%, 20.710754%, 92.1875%)" offset="0.40625"/><stop stop-opacity="1" stop-color="rgb(18.959045%, 20.800781%, 91.818237%)" offset="0.410156"/><stop stop-opacity="1" stop-color="rgb(19.816589%, 20.892334%, 91.448975%)" offset="0.414062"/><stop stop-opacity="1" stop-color="rgb(20.672607%, 20.982361%, 91.079712%)" offset="0.417969"/><stop stop-opacity="1" stop-color="rgb(21.528625%, 21.073914%, 90.710449%)" offset="0.421875"/><stop stop-opacity="1" stop-color="rgb(22.384644%, 21.16394%, 90.339661%)" offset="0.425781"/><stop stop-opacity="1" stop-color="rgb(23.242188%, 21.253967%, 89.970398%)" offset="0.429688"/><stop stop-opacity="1" stop-color="rgb(24.098206%, 21.343994%, 89.601135%)" offset="0.433594"/><stop stop-opacity="1" stop-color="rgb(24.954224%, 21.435547%, 89.231873%)" offset="0.4375"/><stop stop-opacity="1" stop-color="rgb(25.810242%, 21.525574%, 88.86261%)" offset="0.441406"/><stop stop-opacity="1" stop-color="rgb(26.667786%, 21.615601%, 88.493347%)" offset="0.445312"/><stop stop-opacity="1" stop-color="rgb(27.523804%, 21.705627%, 88.122559%)" offset="0.449219"/><stop stop-opacity="1" stop-color="rgb(28.379822%, 21.79718%, 87.753296%)" offset="0.453125"/><stop stop-opacity="1" stop-color="rgb(29.23584%, 21.887207%, 87.384033%)" offset="0.457031"/><stop stop-opacity="1" stop-color="rgb(30.093384%, 21.977234%, 87.014771%)" offset="0.460938"/><stop stop-opacity="1" stop-color="rgb(30.949402%, 22.067261%, 86.645508%)" offset="0.464844"/><stop stop-opacity="1" stop-color="rgb(31.80542%, 22.158813%, 86.276245%)" offset="0.46875"/><stop stop-opacity="1" stop-color="rgb(32.661438%, 22.24884%, 85.906982%)" offset="0.472656"/><stop stop-opacity="1" stop-color="rgb(33.518982%, 22.338867%, 85.53772%)" offset="0.476562"/><stop stop-opacity="1" stop-color="rgb(34.375%, 22.428894%, 85.166931%)" offset="0.480469"/><stop stop-opacity="1" stop-color="rgb(35.231018%, 22.520447%, 84.797668%)" offset="0.484375"/><stop stop-opacity="1" stop-color="rgb(36.087036%, 22.610474%, 84.428406%)" offset="0.488281"/><stop stop-opacity="1" stop-color="rgb(36.943054%, 22.7005%, 84.059143%)" offset="0.492188"/><stop stop-opacity="1" stop-color="rgb(37.799072%, 22.790527%, 83.68988%)" offset="0.496094"/><stop stop-opacity="1" stop-color="rgb(38.656616%, 22.88208%, 83.320618%)" offset="0.5"/><stop stop-opacity="1" stop-color="rgb(39.512634%, 22.972107%, 82.949829%)" offset="0.503906"/><stop stop-opacity="1" stop-color="rgb(40.368652%, 23.06366%, 82.580566%)" offset="0.507812"/><stop stop-opacity="1" stop-color="rgb(41.22467%, 23.153687%, 82.211304%)" offset="0.511719"/><stop stop-opacity="1" stop-color="rgb(42.082214%, 23.243713%, 81.842041%)" offset="0.515625"/><stop stop-opacity="1" stop-color="rgb(42.938232%, 23.33374%, 81.472778%)" offset="0.519531"/><stop stop-opacity="1" stop-color="rgb(43.79425%, 23.425293%, 81.103516%)" offset="0.523438"/><stop stop-opacity="1" stop-color="rgb(44.650269%, 23.51532%, 80.732727%)" offset="0.527344"/><stop stop-opacity="1" stop-color="rgb(45.507812%, 23.605347%, 80.363464%)" offset="0.53125"/><stop stop-opacity="1" stop-color="rgb(46.363831%, 23.695374%, 79.994202%)" offset="0.535156"/><stop stop-opacity="1" stop-color="rgb(47.219849%, 23.786926%, 79.624939%)" offset="0.539062"/><stop stop-opacity="1" stop-color="rgb(48.075867%, 23.876953%, 79.255676%)" offset="0.542969"/><stop stop-opacity="1" stop-color="rgb(48.933411%, 23.96698%, 78.886414%)" offset="0.546875"/><stop stop-opacity="1" stop-color="rgb(49.789429%, 24.057007%, 78.517151%)" offset="0.550781"/><stop stop-opacity="1" stop-color="rgb(50.645447%, 24.14856%, 78.147888%)" offset="0.554688"/><stop stop-opacity="1" stop-color="rgb(51.501465%, 24.238586%, 77.7771%)" offset="0.558594"/><stop stop-opacity="1" stop-color="rgb(52.359009%, 24.328613%, 77.407837%)" offset="0.5625"/><stop stop-opacity="1" stop-color="rgb(53.215027%, 24.41864%, 77.038574%)" offset="0.566406"/><stop stop-opacity="1" stop-color="rgb(54.071045%, 24.510193%, 76.669312%)" offset="0.570312"/><stop stop-opacity="1" stop-color="rgb(54.927063%, 24.60022%, 76.300049%)" offset="0.574219"/><stop stop-opacity="1" stop-color="rgb(55.784607%, 24.691772%, 75.930786%)" offset="0.578125"/><stop stop-opacity="1" stop-color="rgb(56.640625%, 24.781799%, 75.559998%)" offset="0.582031"/><stop stop-opacity="1" stop-color="rgb(57.496643%, 24.871826%, 75.190735%)" offset="0.585938"/><stop stop-opacity="1" stop-color="rgb(58.352661%, 24.961853%, 74.821472%)" offset="0.589844"/><stop stop-opacity="1" stop-color="rgb(59.210205%, 25.053406%, 74.452209%)" offset="0.59375"/><stop stop-opacity="1" stop-color="rgb(60.066223%, 25.143433%, 74.082947%)" offset="0.597656"/><stop stop-opacity="1" stop-color="rgb(60.922241%, 25.233459%, 73.713684%)" offset="0.601562"/><stop stop-opacity="1" stop-color="rgb(61.778259%, 25.323486%, 73.342896%)" offset="0.605469"/><stop stop-opacity="1" stop-color="rgb(62.635803%, 25.415039%, 72.973633%)" offset="0.609375"/><stop stop-opacity="1" stop-color="rgb(63.491821%, 25.505066%, 72.60437%)" offset="0.613281"/><stop stop-opacity="1" stop-color="rgb(64.347839%, 25.595093%, 72.235107%)" offset="0.617188"/><stop stop-opacity="1" stop-color="rgb(65.203857%, 25.68512%, 71.865845%)" offset="0.621094"/><stop stop-opacity="1" stop-color="rgb(66.061401%, 25.776672%, 71.496582%)" offset="0.625"/><stop stop-opacity="1" stop-color="rgb(66.917419%, 25.866699%, 71.127319%)" offset="0.628906"/><stop stop-opacity="1" stop-color="rgb(67.773438%, 25.956726%, 70.758057%)" offset="0.632812"/><stop stop-opacity="1" stop-color="rgb(68.629456%, 26.046753%, 70.387268%)" offset="0.636719"/><stop stop-opacity="1" stop-color="rgb(69.485474%, 26.138306%, 70.018005%)" offset="0.640625"/><stop stop-opacity="1" stop-color="rgb(70.341492%, 26.228333%, 69.648743%)" offset="0.644531"/><stop stop-opacity="1" stop-color="rgb(71.199036%, 26.319885%, 69.27948%)" offset="0.648438"/><stop stop-opacity="1" stop-color="rgb(72.055054%, 26.409912%, 68.910217%)" offset="0.652344"/><stop stop-opacity="1" stop-color="rgb(72.911072%, 26.499939%, 68.540955%)" offset="0.65625"/><stop stop-opacity="1" stop-color="rgb(73.76709%, 26.589966%, 68.170166%)" offset="0.660156"/><stop stop-opacity="1" stop-color="rgb(74.624634%, 26.681519%, 67.800903%)" offset="0.664062"/><stop stop-opacity="1" stop-color="rgb(75.480652%, 26.771545%, 67.431641%)" offset="0.667969"/><stop stop-opacity="1" stop-color="rgb(76.33667%, 26.861572%, 67.062378%)" offset="0.671875"/><stop stop-opacity="1" stop-color="rgb(77.192688%, 26.951599%, 66.693115%)" offset="0.675781"/><stop stop-opacity="1" stop-color="rgb(78.050232%, 27.043152%, 66.323853%)" offset="0.679688"/><stop stop-opacity="1" stop-color="rgb(78.90625%, 27.133179%, 65.953064%)" offset="0.683594"/><stop stop-opacity="1" stop-color="rgb(79.762268%, 27.223206%, 65.583801%)" offset="0.6875"/><stop stop-opacity="1" stop-color="rgb(80.618286%, 27.313232%, 65.214539%)" offset="0.691406"/><stop stop-opacity="1" stop-color="rgb(81.47583%, 27.404785%, 64.845276%)" offset="0.695313"/><stop stop-opacity="1" stop-color="rgb(82.331848%, 27.494812%, 64.476013%)" offset="0.699219"/><stop stop-opacity="1" stop-color="rgb(83.187866%, 27.584839%, 64.10675%)" offset="0.703125"/><stop stop-opacity="1" stop-color="rgb(84.043884%, 27.674866%, 63.735962%)" offset="0.707031"/><stop stop-opacity="1" stop-color="rgb(84.901428%, 27.766418%, 63.366699%)" offset="0.710937"/><stop stop-opacity="1" stop-color="rgb(85.757446%, 27.856445%, 62.997437%)" offset="0.714844"/><stop stop-opacity="1" stop-color="rgb(86.613464%, 27.947998%, 62.628174%)" offset="0.71875"/><stop stop-opacity="1" stop-color="rgb(87.469482%, 28.038025%, 62.258911%)" offset="0.722656"/><stop stop-opacity="1" stop-color="rgb(88.327026%, 28.128052%, 61.889648%)" offset="0.726562"/><stop stop-opacity="1" stop-color="rgb(88.66272%, 28.163147%, 61.74469%)" offset="0.730469"/><stop stop-opacity="1" stop-color="rgb(88.999939%, 28.199768%, 61.599731%)" offset="0.734375"/><stop stop-opacity="1" stop-color="rgb(88.999939%, 28.199768%, 61.599731%)" offset="0.75"/><stop stop-opacity="1" stop-color="rgb(88.999939%, 28.199768%, 61.599731%)" offset="1"/></linearGradient></defs><g clip-path="url(#64a1b5d953)"><g clip-path="url(#8c758df850)"><g clip-path="url(#fc82de8156)"><g clip-path="url(#71c56cd067)"><path fill="url(#92e278c426)" d="M 88.976562 128.890625 L 88.976562 246.375 L 163.308594 246.375 L 163.308594 128.890625 Z M 88.976562 128.890625 " fill-rule="nonzero"/></g></g></g></g><g clip-path="url(#72aca4ce31)"><g clip-path="url(#4f17982b55)"><g clip-path="url(#c4ec6aafe5)"><g clip-path="url(#c6ddc337c4)"><path fill="url(#bc009a8809)" d="M 176.691406 275.703125 L 297.675781 154.71875 L 176.691406 33.738281 L 55.707031 154.71875 Z M 176.691406 275.703125 " fill-rule="nonzero"/></g></g></g></g><g clip-path="url(#2ac94a0498)"><g clip-path="url(#17a84117ed)"><g clip-path="url(#9e50c2e240)"><g clip-path="url(#be9d49e8cf)"><path fill="url(#38810c15bd)" d="M 230.21875 329.105469 L 351.199219 208.121094 L 230.21875 87.136719 L 109.234375 208.121094 Z M 230.21875 329.105469 " fill-rule="nonzero"/></g></g></g></g></svg>