<svg width="20" height="20" viewBox="0 0 20 20" fill="none" xmlns="http://www.w3.org/2000/svg">
<path fill-rule="evenodd" clip-rule="evenodd" d="M19.7748 18.6875L14.9656 13.8793C17.8613 10.4028 17.5104 5.26369 14.1691 2.21306C10.8278 -0.837561 5.67802 -0.720523 2.47875 2.47875C-0.720519 5.67802 -0.837557 10.8278 2.21307 14.1691C5.26369 17.5104 10.4028 17.8613 13.8793 14.9656L18.6875 19.7748C18.9878 20.0751 19.4746 20.0751 19.7748 19.7748C20.0751 19.4746 20.0751 18.9878 19.7748 18.6875ZM1.55804 8.47361C1.55804 4.65424 4.65424 1.55803 8.47361 1.55803C12.293 1.55803 15.3892 4.65424 15.3892 8.47361C15.3892 12.293 12.293 15.3892 8.47361 15.3892C4.656 15.3849 1.56227 12.2912 1.55804 8.47361Z" fill="#963BA6"/>
</svg>
