<svg width="32" height="32" viewBox="0 0 32 32" fill="none" xmlns="http://www.w3.org/2000/svg">
<g clip-path="url(#clip0_17_201)">
<path fill-rule="evenodd" clip-rule="evenodd" d="M16 19.75C18.0702 19.7478 19.7478 18.0702 19.75 16V11C19.75 8.92893 18.0711 7.25 16 7.25C13.9289 7.25 12.25 8.92893 12.25 11V16C12.2522 18.0702 13.9298 19.7478 16 19.75ZM13.5 11C13.5 9.61929 14.6193 8.5 16 8.5C17.3807 8.5 18.5 9.61929 18.5 11V16C18.5 17.3807 17.3807 18.5 16 18.5C14.6193 18.5 13.5 17.3807 13.5 16V11ZM16.625 22.2188V24.125C16.625 24.4702 16.3452 24.75 16 24.75C15.6548 24.75 15.375 24.4702 15.375 24.125V22.2188C12.1832 21.894 9.75394 19.2082 9.75 16C9.75 15.6548 10.0298 15.375 10.375 15.375C10.7202 15.375 11 15.6548 11 16C11 18.7614 13.2386 21 16 21C18.7614 21 21 18.7614 21 16C21 15.6548 21.2798 15.375 21.625 15.375C21.9702 15.375 22.25 15.6548 22.25 16C22.2461 19.2082 19.8168 21.894 16.625 22.2188Z" fill="#963BA6"/>
</g>
<defs>
<clipPath id="clip0_17_201">
<rect width="20" height="20" fill="white" transform="translate(6 6)"/>
</clipPath>
</defs>
</svg>
