<svg width="16" height="16" viewBox="0 0 16 16" fill="none" xmlns="http://www.w3.org/2000/svg">
<g clip-path="url(#clip0_64_9)">
<path fill-rule="evenodd" clip-rule="evenodd" d="M13.1854 11.3818V4.6182C13.1854 5.236 12.2924 5.78123 10.9309 6.1063C10.0971 6.30533 9.08767 6.42183 8 6.42183C6.91233 6.42183 5.90287 6.30533 5.0691 6.1063C3.70757 5.78123 2.81455 5.236 2.81455 4.6182V11.3818C2.81455 11.9996 3.70757 12.5449 5.0691 12.8699C5.90287 13.069 6.91233 13.1855 8 13.1855C9.08767 13.1855 10.0971 13.069 10.9309 12.8699C12.2924 12.5449 13.1854 11.9996 13.1854 11.3818Z" fill="#170D1C"/>
<path fill-rule="evenodd" clip-rule="evenodd" d="M3.48283 4.6173C3.49163 4.64237 3.5401 4.74867 3.793 4.91203C4.09933 5.10993 4.58307 5.30483 5.2239 5.45783C6.00023 5.6432 6.95707 5.75517 8 5.75517C9.04293 5.75517 9.99977 5.6432 10.7761 5.45783C11.4169 5.30483 11.9007 5.10993 12.207 4.91203C12.4599 4.74867 12.5084 4.64237 12.5172 4.6173C12.5096 4.59587 12.4778 4.53243 12.3545 4.43103C12.1755 4.28387 11.8763 4.12157 11.4477 3.9725C10.5967 3.6765 9.37777 3.48123 8 3.48123C6.62223 3.48123 5.4033 3.6765 4.55233 3.9725C4.12373 4.12157 3.82447 4.28387 3.6455 4.43103C3.52223 4.53243 3.49043 4.59587 3.48283 4.6173ZM12.5188 6.26257C12.1059 6.46417 11.6167 6.62797 11.0857 6.75473C10.1945 6.9675 9.13243 7.0885 8 7.0885C6.86757 7.0885 5.80547 6.9675 4.9143 6.75473C4.38327 6.62797 3.89413 6.46417 3.4812 6.26257V11.3758C3.48383 11.3848 3.51423 11.4956 3.793 11.6757C4.09933 11.8736 4.58307 12.0685 5.2239 12.2215C6.00023 12.4068 6.95707 12.5188 8 12.5188C9.04293 12.5188 9.99977 12.4068 10.7761 12.2215C11.4169 12.0685 11.9007 11.8736 12.207 11.6757C12.4858 11.4956 12.5162 11.3849 12.5188 11.3758V6.26257ZM13.8521 4.6182V11.3818C13.8521 12.0359 13.386 12.5014 12.9305 12.7956C12.4499 13.1061 11.8064 13.3463 11.0857 13.5184C10.1945 13.7311 9.13243 13.8521 8 13.8521C6.86757 13.8521 5.80547 13.7311 4.9143 13.5184C4.1936 13.3463 3.55007 13.1061 3.06949 12.7956C2.61402 12.5014 2.14788 12.0359 2.14788 11.3818V4.6182C2.14788 4.08947 2.45741 3.6818 2.7986 3.4012C3.14442 3.11683 3.60457 2.89047 4.11433 2.71316C5.1401 2.35636 6.51393 2.14789 8 2.14789C9.48607 2.14789 10.8599 2.35636 11.8857 2.71316C12.3954 2.89047 12.8556 3.11683 13.2014 3.4012C13.5426 3.6818 13.8521 4.08947 13.8521 4.6182Z" fill="#170D1C"/>
</g>
<defs>
<clipPath id="clip0_64_9">
<rect width="16" height="16" fill="white"/>
</clipPath>
</defs>
</svg>
