<svg width="20" height="20" viewBox="0 0 20 20" fill="none" xmlns="http://www.w3.org/2000/svg">
<path fill-rule="evenodd" clip-rule="evenodd" d="M19.7747 18.6875L14.9655 13.8792C17.8612 10.4028 17.5103 5.26369 14.169 2.21308C10.8278 -0.837534 5.678 -0.720497 2.47874 2.47876C-0.720512 5.67801 -0.837549 10.8278 2.21306 14.1691C5.26367 17.5104 10.4028 17.8612 13.8792 14.9656L18.6875 19.7747C18.9877 20.075 19.4745 20.075 19.7747 19.7747C20.075 19.4745 20.075 18.9877 19.7747 18.6875ZM1.55803 8.47359C1.55803 4.65424 4.65423 1.55805 8.47358 1.55805C12.2929 1.55805 15.3891 4.65424 15.3891 8.47359C15.3891 12.2929 12.2929 15.3891 8.47358 15.3891C4.65598 15.3849 1.56227 12.2912 1.55803 8.47359Z" fill="#A63B7B"/>
</svg>
