<svg width="20" height="21" viewBox="0 0 20 21" fill="none" xmlns="http://www.w3.org/2000/svg">
<g clip-path="url(#clip0_19_375)">
<path fill-rule="evenodd" clip-rule="evenodd" d="M17.3172 10.4422L11.6922 16.0672C11.448 16.3114 11.052 16.3114 10.8078 16.0672C10.5636 15.823 10.5636 15.427 10.8078 15.1828L15.3664 10.625H3.125C2.77982 10.625 2.5 10.3452 2.5 10C2.5 9.65482 2.77982 9.375 3.125 9.375H15.3664L10.8078 4.81719C10.5636 4.57297 10.5636 4.17703 10.8078 3.93281C11.052 3.6886 11.448 3.6886 11.6922 3.93281L17.3172 9.55781C17.4345 9.67504 17.5005 9.83412 17.5005 10C17.5005 10.1659 17.4345 10.325 17.3172 10.4422Z" fill="#1C0A1F"/>
</g>
<defs>
<clipPath id="clip0_19_375">
<rect width="20" height="20" fill="white"/>
</clipPath>
</defs>
</svg>
