<svg width="960" height="56" viewBox="0 0 960 56" fill="none" xmlns="http://www.w3.org/2000/svg">
<g clip-path="url(#clip0_66_280)">
<path fill-rule="evenodd" clip-rule="evenodd" d="M40 18.25C34.6152 18.25 30.25 22.6152 30.25 28C30.25 33.3848 34.6152 37.75 40 37.75C45.3848 37.75 49.75 33.3848 49.75 28C49.7443 22.6176 45.3824 18.2557 40 18.25ZM40.75 36.2153V30.25H43C43.4142 30.25 43.75 29.9142 43.75 29.5C43.75 29.0858 43.4142 28.75 43 28.75H40.75V26.5C40.75 25.6716 41.4216 25 42.25 25H43.75C44.1642 25 44.5 24.6642 44.5 24.25C44.5 23.8358 44.1642 23.5 43.75 23.5H42.25C40.5931 23.5 39.25 24.8431 39.25 26.5V28.75H37C36.5858 28.75 36.25 29.0858 36.25 29.5C36.25 29.9142 36.5858 30.25 37 30.25H39.25V36.2153C34.8579 35.8144 31.5579 32.0299 31.7585 27.6241C31.9592 23.2183 35.5896 19.7495 40 19.7495C44.4104 19.7495 48.0408 23.2183 48.2415 27.6241C48.4421 32.0299 45.1421 35.8144 40.75 36.2153Z" fill="#F0DEF2"/>
</g>
<g clip-path="url(#clip1_66_280)">
<path fill-rule="evenodd" clip-rule="evenodd" d="M491.193 22.4631C491.077 22.1828 490.803 22.0001 490.5 22H487.647C486.836 20.6197 485.36 19.7658 483.759 19.75C482.575 19.7345 481.434 20.1975 480.595 21.0344C479.732 21.8814 479.247 23.0407 479.25 24.25V24.8209C475.476 23.8253 472.388 20.755 472.356 20.7222C472.15 20.5149 471.843 20.4457 471.569 20.5446C471.294 20.6436 471.102 20.8928 471.076 21.1834C470.672 25.6637 471.973 28.6619 473.138 30.3878C473.707 31.241 474.398 32.0055 475.19 32.6566C473.762 34.3 471.514 35.1634 471.489 35.1728C471.275 35.2531 471.109 35.4269 471.039 35.6448C470.968 35.8627 471.001 36.1008 471.128 36.2913C471.199 36.3962 471.48 36.7647 472.167 37.1087C473.017 37.5344 474.139 37.75 475.5 37.75C482.125 37.75 487.661 32.6481 488.227 26.0837L491.031 23.2806C491.245 23.066 491.309 22.7433 491.193 22.4631ZM486.974 25.2203C486.845 25.3492 486.768 25.5205 486.757 25.7022C486.375 31.6169 481.432 36.25 475.5 36.25C474.51 36.25 473.812 36.1187 473.323 35.9613C474.402 35.3753 475.907 34.3675 476.874 32.9163C476.989 32.7438 477.027 32.5315 476.98 32.3298C476.933 32.128 476.804 31.9548 476.625 31.8512C476.581 31.8259 472.508 29.3819 472.5 22.8513C474 24.07 476.742 25.9609 479.875 26.4878C480.093 26.5245 480.315 26.4636 480.484 26.3215C480.652 26.1794 480.749 25.9704 480.75 25.75V24.25C480.748 23.4418 481.073 22.667 481.65 22.1013C482.203 21.5469 482.957 21.2398 483.741 21.25C484.927 21.265 486.037 21.9887 486.501 23.0509C486.62 23.3238 486.89 23.5001 487.188 23.5H488.688L486.974 25.2203Z" fill="#F0DEF2"/>
</g>
<g clip-path="url(#clip2_66_280)">
<path fill-rule="evenodd" clip-rule="evenodd" d="M920 23.5C917.515 23.5 915.5 25.5147 915.5 28C915.5 30.4853 917.515 32.5 920 32.5C922.485 32.5 924.5 30.4853 924.5 28C924.497 25.5158 922.484 23.5026 920 23.5ZM920 31C918.343 31 917 29.6569 917 28C917 26.3431 918.343 25 920 25C921.657 25 923 26.3431 923 28C923 29.6569 921.657 31 920 31ZM924.5 18.25H915.5C912.602 18.2531 910.253 20.6018 910.25 23.5V32.5C910.253 35.3982 912.602 37.7469 915.5 37.75H924.5C927.398 37.7469 929.747 35.3982 929.75 32.5V23.5C929.747 20.6018 927.398 18.2531 924.5 18.25ZM928.25 32.5C928.25 34.5711 926.571 36.25 924.5 36.25H915.5C913.429 36.25 911.75 34.5711 911.75 32.5V23.5C911.75 21.4289 913.429 19.75 915.5 19.75H924.5C926.571 19.75 928.25 21.4289 928.25 23.5V32.5ZM926 23.125C926 23.7463 925.496 24.25 924.875 24.25C924.254 24.25 923.75 23.7463 923.75 23.125C923.75 22.5037 924.254 22 924.875 22C925.496 22 926 22.5037 926 23.125Z" fill="#F0DEF2"/>
</g>
<defs>
<clipPath id="clip0_66_280">
<rect width="24" height="24" fill="white" transform="translate(28 16)"/>
</clipPath>
<clipPath id="clip1_66_280">
<rect width="24" height="24" fill="white" transform="translate(468 16)"/>
</clipPath>
<clipPath id="clip2_66_280">
<rect width="24" height="24" fill="white" transform="translate(908 16)"/>
</clipPath>
</defs>
</svg>
