<svg width="16" height="16" viewBox="0 0 16 16" fill="none" xmlns="http://www.w3.org/2000/svg">
<g clip-path="url(#clip0_19_224)">
<path fill-rule="evenodd" clip-rule="evenodd" d="M4.6087 10.1912C5.57343 9.96087 6.74147 9.8261 8 9.8261C9.25853 9.8261 10.4266 9.96087 11.3913 10.1912C12.3048 10.4093 13.3322 10.9223 13.7854 11.2784L8.28287 2.45363C8.15237 2.24434 7.84763 2.24434 7.71713 2.45363L2.21458 11.2784C2.66777 10.9223 3.6952 10.4093 4.6087 10.1912Z" fill="#1C0A1F"/>
<path fill-rule="evenodd" clip-rule="evenodd" d="M13.3327 11.9213C13.3315 11.9154 13.3292 11.9052 13.3249 11.8902C13.3145 11.8534 13.2983 11.8086 13.2782 11.7608C13.2723 11.7468 13.2663 11.7331 13.2604 11.7201C12.8368 11.4296 11.9929 11.0202 11.2365 10.8396C10.3292 10.623 9.21377 10.4928 8 10.4928C6.78623 10.4928 5.67083 10.623 4.7635 10.8396C4.0004 11.0218 3.14835 11.4368 2.72846 11.7277C2.72461 11.7358 2.72072 11.7443 2.71684 11.7531C2.69973 11.7917 2.68574 11.8295 2.67659 11.863C2.66785 11.8949 2.6668 11.9111 2.66668 11.9129C2.66667 11.9131 2.66668 11.913 2.66668 11.9129C2.66668 11.9214 2.67013 12.0256 2.89495 12.2105C3.11515 12.3915 3.47407 12.5844 3.97637 12.7591C4.97473 13.1063 6.3973 13.3333 8 13.3333C9.6027 13.3333 11.0253 13.1063 12.0236 12.7591C12.5259 12.5844 12.8848 12.3915 13.105 12.2105C13.3002 12.05 13.3286 11.9504 13.3327 11.9213ZM1.65059 10.9229L7.15143 2.10089C7.54293 1.47303 8.45707 1.47303 8.84857 2.10089L14.3511 10.9257C14.357 10.9351 14.3626 10.9446 14.368 10.9543L13.7854 11.2784C14.368 10.9543 14.3679 10.9542 14.368 10.9543L14.3684 10.955L14.3688 10.9558L14.37 10.958L14.3733 10.9639C14.3759 10.9687 14.3792 10.9749 14.3832 10.9824C14.3913 10.9975 14.4021 11.0182 14.4147 11.0433C14.4397 11.0931 14.4732 11.163 14.5072 11.2439C14.5634 11.3774 14.6667 11.6437 14.6667 11.913C14.6667 12.4809 14.3343 12.9258 13.9519 13.2403C13.5649 13.5586 13.0451 13.8155 12.4617 14.0184C11.2885 14.4265 9.711 14.6667 8 14.6667C6.289 14.6667 4.71153 14.4265 3.53833 14.0184C2.95488 13.8155 2.4351 13.5586 2.04806 13.2403C1.66565 12.9258 1.33333 12.4809 1.33333 11.913C1.33333 11.6242 1.43088 11.3641 1.49774 11.2131C1.53458 11.1299 1.57116 11.0601 1.59896 11.0104C1.61299 10.9852 1.62516 10.9645 1.6345 10.949C1.63918 10.9413 1.64318 10.9348 1.64639 10.9296L1.64887 10.9257L1.65059 10.9229ZM11.9956 9.668L8 3.25999L4.00437 9.668C4.15537 9.6203 4.30597 9.57807 4.4539 9.54273C5.47603 9.2987 6.6967 9.15943 8 9.15943C9.3033 9.15943 10.524 9.2987 11.5461 9.54273C11.694 9.57807 11.8446 9.6203 11.9956 9.668Z" fill="#1C0A1F"/>
</g>
<defs>
<clipPath id="clip0_19_224">
<rect width="16" height="16" fill="white"/>
</clipPath>
</defs>
</svg>
