<svg width="19" height="19" viewBox="0 0 19 19" fill="none" xmlns="http://www.w3.org/2000/svg">
<path fill-rule="evenodd" clip-rule="evenodd" d="M18.9998 9.49932C19 14.1167 15.6799 18.0656 11.131 18.8581C6.5821 19.6506 2.12215 17.0573 0.560806 12.7119C-1.00053 8.36647 0.78902 3.52769 4.80209 1.24387C8.81516 -1.03995 13.8893 -0.107236 16.8278 3.45443C17.0202 3.67096 17.079 3.97531 16.9811 4.24793C16.8832 4.52056 16.6441 4.71791 16.3579 4.76248C16.0717 4.80704 15.7839 4.69169 15.6077 4.46175C13.207 1.55083 9.0855 0.738934 5.76014 2.52187C2.43479 4.3048 0.830024 8.18693 1.92587 11.7975C3.02172 15.408 6.51354 17.7433 10.2689 17.3771C14.0243 17.0109 16.9992 14.0451 17.377 10.2909H9.50052C9.06332 10.2909 8.70891 9.93651 8.70891 9.49932C8.70891 9.06213 9.06332 8.70772 9.50052 8.70772H18.2082C18.6454 8.70772 18.9998 9.06213 18.9998 9.49932Z" fill="#1C0A1F"/>
</svg>
